<?xml version="1.0" encoding="UTF-8"?>
<svg version="1.1" xmlns="http://www.w3.org/2000/svg" width="819" height="819">
<path d="M0 0 C1.25968597 0.00182281 2.51937195 0.00364563 3.81723022 0.00552368 C22.06639007 0.05000591 39.94903803 0.42693605 58 3.3125 C59.12857422 3.48410645 60.25714844 3.65571289 61.41992188 3.83251953 C117.16883895 12.45372437 171.33381761 32.00384107 219 62.3125 C219.9895166 62.93970947 219.9895166 62.93970947 220.99902344 63.57958984 C238.79676766 74.94909997 255.83056078 87.72677798 271.41796875 101.9765625 C272.82446183 103.24900254 274.23708262 104.5152703 275.6784668 105.74804688 C281.34459804 110.60410918 286.66194529 115.78828208 291.93579102 121.06298828 C293.42641615 122.55143237 294.92487017 124.03167277 296.42382812 125.51171875 C302.00951668 131.06569104 307.18077119 136.74886893 312.07763672 142.92871094 C313.86758052 145.14829581 315.73400802 147.2369669 317.6875 149.3125 C365.86734806 202.97388766 395.19423938 277.34653922 406.25 347.6875 C406.40114258 348.6472876 406.55228516 349.6070752 406.70800781 350.59594727 C407.18599221 353.83043425 407.60423862 357.06686333 408 360.3125 C408.08720306 361.02168579 408.17440613 361.73087158 408.26425171 362.46154785 C410.12481357 378.0736528 410.35964539 393.60352796 410.3125 409.3125 C410.30976578 411.20202896 410.30976578 411.20202896 410.30697632 413.12973022 C410.26249409 431.37889007 409.88556395 449.26153803 407 467.3125 C406.74259033 469.00536133 406.74259033 469.00536133 406.47998047 470.73242188 C397.85877563 526.48133895 378.30865893 580.64631761 348 628.3125 C347.58186035 628.97217773 347.1637207 629.63185547 346.73291016 630.31152344 C335.36340003 648.10926766 322.58572202 665.14306078 308.3359375 680.73046875 C307.06349746 682.13696183 305.7972297 683.54958262 304.56445312 684.9909668 C299.70839082 690.65709804 294.52421792 695.97444529 289.24951172 701.24829102 C287.76106763 702.73891615 286.28082723 704.23737017 284.80078125 705.73632812 C279.24680896 711.32201668 273.56363107 716.49327119 267.38378906 721.39013672 C265.16420419 723.18008052 263.0755331 725.04650802 261 727 C207.33861234 775.17984806 132.96596078 804.50673938 62.625 815.5625 C61.6652124 815.71364258 60.7054248 815.86478516 59.71655273 816.02050781 C56.48206575 816.49849221 53.24563667 816.91673862 50 817.3125 C49.29081421 817.39970306 48.58162842 817.48690613 47.85095215 817.57675171 C32.2388472 819.43731357 16.70897204 819.67214539 1 819.625 C-0.25968597 819.62317719 -1.51937195 819.62135437 -2.81723022 819.61947632 C-21.06639007 819.57499409 -38.94903803 819.19806395 -57 816.3125 C-58.69286133 816.05509033 -58.69286133 816.05509033 -60.41992188 815.79248047 C-116.16883895 807.17127563 -170.33381761 787.62115893 -218 757.3125 C-218.65967773 756.89436035 -219.31935547 756.4762207 -219.99902344 756.04541016 C-237.79676766 744.67590003 -254.83056078 731.89822202 -270.41796875 717.6484375 C-271.82446183 716.37599746 -273.23708262 715.1097297 -274.6784668 713.87695312 C-280.34459804 709.02089082 -285.66194529 703.83671792 -290.93579102 698.56201172 C-292.42641615 697.07356763 -293.92487017 695.59332723 -295.42382812 694.11328125 C-301.00951668 688.55930896 -306.18077119 682.87613107 -311.07763672 676.69628906 C-312.86758052 674.47670419 -314.73400802 672.3880331 -316.6875 670.3125 C-364.86734806 616.65111234 -394.19423938 542.27846078 -405.25 471.9375 C-405.47671387 470.4978186 -405.47671387 470.4978186 -405.70800781 469.02905273 C-406.18599221 465.79456575 -406.60423862 462.55813667 -407 459.3125 C-407.08720306 458.60331421 -407.17440613 457.89412842 -407.26425171 457.16345215 C-409.12481357 441.5513472 -409.35964539 426.02147204 -409.3125 410.3125 C-409.31067719 409.05281403 -409.30885437 407.79312805 -409.30697632 406.49526978 C-409.26249409 388.24610993 -408.88556395 370.36346197 -406 352.3125 C-405.82839355 351.18392578 -405.65678711 350.05535156 -405.47998047 348.89257812 C-396.85877563 293.14366105 -377.30865893 238.97868239 -347 191.3125 C-346.58186035 190.65282227 -346.1637207 189.99314453 -345.73291016 189.31347656 C-334.36340003 171.51573234 -321.58572202 154.48193922 -307.3359375 138.89453125 C-306.06349746 137.48803817 -304.7972297 136.07541738 -303.56445312 134.6340332 C-298.70839082 128.96790196 -293.52421792 123.65055471 -288.24951172 118.37670898 C-286.76106763 116.88608385 -285.28082723 115.38762983 -283.80078125 113.88867188 C-278.24680896 108.30298332 -272.56363107 103.13172881 -266.38378906 98.23486328 C-264.16420419 96.44491948 -262.0755331 94.57849198 -260 92.625 C-206.33861234 44.44515194 -131.96596078 15.11826062 -61.625 4.0625 C-60.1853186 3.83578613 -60.1853186 3.83578613 -58.71655273 3.60449219 C-55.48206575 3.12650779 -52.24563667 2.70826138 -49 2.3125 C-48.29081421 2.22529694 -47.58162842 2.13809387 -46.85095215 2.04824829 C-31.2388472 0.18768643 -15.70897204 -0.04714539 0 0 Z " fill="#051331" transform="translate(409,-0.3125)"/>
<path d="M0 0 C7.40188274 -0.06900927 14.8026413 -0.12870429 22.20458984 -0.16479492 C24.72057892 -0.17984619 27.23654192 -0.20029181 29.75244141 -0.22631836 C33.37669325 -0.26286182 37.000597 -0.27976353 40.625 -0.29296875 C41.74302002 -0.30845261 42.86104004 -0.32393646 44.01293945 -0.33988953 C53.17348162 -0.34184683 60.14543193 1.27205104 66.9921875 7.67578125 C77.08402137 19.35796249 81.69980773 35.11485585 86.68017578 49.45019531 C88.74731443 55.37429582 90.98221918 61.22318628 93.28881836 67.05786133 C96.29177252 74.66771333 99.13736863 82.33660793 102 90 C103.10123483 92.94543509 104.20290597 95.89070688 105.3046875 98.8359375 C105.58930344 99.59676132 105.87391937 100.35758514 106.16716003 101.14146423 C112.21254895 117.29777004 118.28519567 133.44358398 124.41729736 149.56719971 C125.08367255 151.31954919 125.74950854 153.07210383 126.41473389 154.82489014 C128.27404549 159.72210444 130.14709253 164.61370161 132.0368042 169.49926758 C132.7043383 171.23237748 133.36697116 172.96738009 134.0256958 174.70385742 C135.0594965 177.42673461 136.10841117 180.14338636 137.16015625 182.859375 C137.47061386 183.68681213 137.78107147 184.51424927 138.10093689 185.36676025 C140.18952688 190.70095493 142.60795964 196.30397982 148 199 C150.87910588 199.23274209 153.74146495 199.41972757 156.625 199.5625 C157.82769531 199.62727539 157.82769531 199.62727539 159.0546875 199.69335938 C161.0362511 199.79951457 163.01810271 199.90026855 165 200 C165.02465392 204.53897705 165.04283789 209.07791543 165.05493164 213.61694336 C165.0599714 215.16219766 165.0668032 216.70744716 165.07543945 218.25268555 C165.08752076 220.46925029 165.09323173 222.68575218 165.09765625 224.90234375 C165.10539818 225.94454323 165.10539818 225.94454323 165.11329651 227.00779724 C165.11349277 228.6722933 165.06189129 230.33665499 165 232 C162.37400673 234.62599327 155.04263518 233.27420968 151.28417969 233.29516602 C149.16792578 233.31215539 147.05332869 233.35598006 144.9375 233.40039062 C134.16349805 233.52433299 124.40941165 231.90093568 115.8359375 224.8671875 C110.40324989 219.34202861 107.11622836 212.61936841 104.3046875 205.4765625 C104.05301819 204.83837082 103.80134888 204.20017914 103.54205322 203.54264832 C99.86179499 194.16469178 96.30558543 184.73823661 92.75 175.3125 C92.37859894 174.32831085 92.00719788 173.3441217 91.62454224 172.33010864 C86.99662518 160.05662005 82.39072386 147.77559868 77.9375 135.4375 C77.52661133 134.31061768 77.11572266 133.18373535 76.69238281 132.02270508 C76.32854492 131.00329834 75.96470703 129.9838916 75.58984375 128.93359375 C75.27909912 128.06790771 74.96835449 127.20222168 74.64819336 126.31030273 C74 124 74 124 74 120 C73.34 120 72.68 120 72 120 C71.78988281 120.76441406 71.57976562 121.52882813 71.36328125 122.31640625 C69.45733734 127.46627761 66.83026309 132.13233623 64.1875 136.9375 C63.6085498 137.9987207 63.02959961 139.05994141 62.43310547 140.15332031 C58.0409692 148.17684394 53.53767772 156.13474198 49.01171875 164.08325195 C44.13476871 172.68395655 39.47390596 181.3938654 34.82592773 190.11987305 C30.01680446 199.13987674 25.1250923 208.11220964 20.1875 217.0625 C19.83875824 217.69577209 19.49001648 218.32904419 19.13070679 218.98150635 C13.34646515 229.48030227 13.34646515 229.48030227 11 233 C7.94924916 233.266487 5.10373821 233.34757146 2.0546875 233.29296875 C1.1696756 233.28872391 0.2846637 233.28447906 -0.62716675 233.28010559 C-3.46008445 233.26328259 -6.29229652 233.22562425 -9.125 233.1875 C-11.04295849 233.17245782 -12.96092811 233.15876861 -14.87890625 233.14648438 C-19.58621031 233.11336727 -24.29298544 233.06156055 -29 233 C-27.86112097 229.36039057 -26.65001244 226.08625452 -24.70703125 222.8046875 C-24.24949463 222.02109863 -23.79195801 221.23750977 -23.32055664 220.43017578 C-22.82289795 219.58696777 -22.32523926 218.74375977 -21.8125 217.875 C-16.87794924 209.38615006 -12.16645731 200.79709904 -7.5625 192.125 C-2.9318847 183.40892127 1.78821473 174.75663143 6.6875 166.1875 C10.96212521 158.70706803 15.05349603 151.15857499 19 143.5 C22.94652749 135.84137936 27.038771 128.29347425 31.3125 120.8125 C36.04681937 112.51077097 40.69294183 104.16639248 45.23275757 95.75692749 C45.90540278 94.51251468 46.58035429 93.26934546 47.25772095 92.02749634 C48.20445698 90.2901411 49.14148317 88.54750546 50.078125 86.8046875 C50.88878418 85.30397705 50.88878418 85.30397705 51.71582031 83.77294922 C53.52894425 79.85784243 54.37007 77.41211883 53.2590332 73.17260742 C52.86031006 72.16045166 52.46158691 71.1482959 52.05078125 70.10546875 C51.61443359 68.98462891 51.17808594 67.86378906 50.72851562 66.70898438 C50.26123047 65.54689453 49.79394531 64.38480469 49.3125 63.1875 C48.64057617 61.46176758 48.64057617 61.46176758 47.95507812 59.70117188 C42.17325929 44.373491 42.17325929 44.373491 30 34 C26.76134365 32.92044788 24.20844162 32.79558259 20.80078125 32.68359375 C19.16749878 32.62643188 19.16749878 32.62643188 17.5012207 32.56811523 C16.11894287 32.52501221 14.73666504 32.48190918 13.3125 32.4375 C8.919375 32.293125 4.52625 32.14875 0 32 C0 21.44 0 10.88 0 0 Z " fill="#2971F7" transform="translate(82,269)"/>
<path d="M0 0 C8.58 0 17.16 0 26 0 C30.05582779 4.36001488 31.40718976 5.84695104 33.22607422 10.98583984 C34.61173303 14.59204969 36.63751146 17.84787926 38.5625 21.1875 C39.41529149 22.72646475 40.26543005 24.26690177 41.11328125 25.80859375 C49.70077604 41.30361872 58.58228261 56.58108485 68.19091797 71.46630859 C72.72698639 78.50594038 76.96700247 85.66044549 81 93 C80.96241577 92.1642041 80.96241577 92.1642041 80.92407227 91.31152344 C79.5889595 60.90364908 78.78258862 30.43759375 79 0 C87.91 0 96.82 0 106 0 C106 46.53 106 93.06 106 141 C103.36 141.33 100.72 141.66 98 142 C96.63879829 142.25744974 95.27885063 142.52191282 93.921875 142.80078125 C89.42385141 143.4702347 85.25788383 143.84236327 81 142 C76.06211764 137.27534131 73.28758945 130.70943906 70.33349609 124.64599609 C68.42865789 120.86631164 66.17981087 117.35701293 63.875 113.8125 C60.10615626 107.85373302 56.51257051 101.8052329 52.96484375 95.71289062 C49.53508501 89.84928135 45.96874389 84.07675357 42.375 78.3125 C36.60697055 69.05236524 30.88261257 59.76522513 26 50 C25.67 80.03 25.34 110.06 25 141 C16.75 141 8.5 141 0 141 C0 94.47 0 47.94 0 0 Z " fill="#3954F7" transform="translate(287,328)"/>
<path d="M0 0 C1.8572168 -0.04350586 1.8572168 -0.04350586 3.75195312 -0.08789062 C14.50767791 -0.16191096 22.68644713 1.81479202 30.6171875 9.328125 C37.98940251 17.36478857 40.77912974 25.33152164 40.66455078 36.19726562 C40.66484283 36.9397052 40.66513489 37.68214478 40.66543579 38.44708252 C40.66405612 40.87109574 40.64856017 43.2947913 40.6328125 45.71875 C40.62907751 47.41125318 40.62623283 49.10375853 40.62423706 50.79626465 C40.61663888 55.2284147 40.59702358 59.66043151 40.5748291 64.0925293 C40.55428806 68.62416787 40.54521776 73.15582819 40.53515625 77.6875 C40.51377374 86.56255821 40.47968438 95.43751798 40.4375 104.3125 C39.01986383 104.47928142 37.60191286 104.64338817 36.18383789 104.80639648 C35.39425186 104.89807602 34.60466583 104.98975555 33.79115295 105.08421326 C30.47956219 105.40541281 27.20012788 105.40728279 23.875 105.375 C22.65683594 105.36597656 21.43867187 105.35695313 20.18359375 105.34765625 C18.82427734 105.33025391 18.82427734 105.33025391 17.4375 105.3125 C17.1075 101.6825 16.7775 98.0525 16.4375 94.3125 C15.40625 95.570625 14.375 96.82875 13.3125 98.125 C8.99729126 103.04920997 4.89081106 105.30004328 -1.5625 106.3125 C-13.6291612 107.10563541 -25.72569639 107.31920061 -35.5625 99.3125 C-42.49003476 92.32707498 -43.54074998 85.11080755 -43.8125 75.5625 C-43.71026343 67.39379789 -42.57165636 58.92497078 -36.53955078 52.921875 C-29.49532742 47.18767885 -20.57794694 45.36866893 -11.8125 44.125 C-10.77351562 43.96483398 -9.73453125 43.80466797 -8.6640625 43.63964844 C-5.63263804 43.17797678 -2.59890738 42.74004012 0.4375 42.3125 C1.28248047 42.19245605 2.12746094 42.07241211 2.99804688 41.94873047 C7.14022717 41.36629062 11.28513515 40.81823674 15.4375 40.3125 C15.96924786 32.7565139 15.96924786 32.7565139 12.4375 26.3125 C7.41485479 22.75989729 2.37415646 22.60667602 -3.5625 23.3125 C-8.93037898 25.20119816 -12.02241584 28.23233169 -14.5625 33.3125 C-22.4825 33.3125 -30.4025 33.3125 -38.5625 33.3125 C-38.5625 21.63597917 -37.36138198 17.57945317 -29.8203125 9.4296875 C-20.8575968 1.21042287 -11.75166969 0.0897988 0 0 Z " fill="#6627F6" transform="translate(713.5625,364.6875)"/>
<path d="M0 0 C0.67804688 0.52980469 1.35609375 1.05960937 2.0546875 1.60546875 C2.67085938 2.08371094 3.28703125 2.56195313 3.921875 3.0546875 C12.72024973 10.81680921 17.16385645 23.37170783 19.0546875 34.60546875 C19.0546875 40.87546875 19.0546875 47.14546875 19.0546875 53.60546875 C-2.7253125 53.60546875 -24.5053125 53.60546875 -46.9453125 53.60546875 C-42.90259562 66.12569202 -42.90259562 66.12569202 -34.3828125 74.54296875 C-27.62110502 76.63295106 -19.91295322 76.93187985 -13.3828125 73.91796875 C-10.77729002 72.50785302 -9.96525418 71.64158953 -8.49609375 68.98046875 C-4.85340994 65.58881215 -1.898131 66.09318986 2.9375 66.16601562 C4.04867187 66.20791016 5.15984375 66.24980469 6.3046875 66.29296875 C7.99464844 66.32680664 7.99464844 66.32680664 9.71875 66.36132812 C12.49873982 66.42022621 15.27604082 66.50242674 18.0546875 66.60546875 C17.01539011 76.38709127 13.78675057 84.10380097 6.0546875 90.60546875 C-7.28796042 98.48630298 -20.2285609 100.81023384 -35.578125 97.921875 C-50.03363016 93.37386358 -59.82117044 84.85519321 -67.40234375 71.92578125 C-71.40971907 63.30231536 -72.50026329 55.3889804 -72.4453125 45.91796875 C-72.43959229 44.77328125 -72.43387207 43.62859375 -72.42797852 42.44921875 C-72.10100862 26.89557984 -67.25714713 15.35474858 -56.6328125 3.85546875 C-40.65519845 -11.23252313 -17.77854038 -12.81193746 0 0 Z " fill="#4447F7" transform="translate(480.9453125,372.39453125)"/>
<path d="M0 0 C9.57 0 19.14 0 29 0 C34.75 10.625 34.75 10.625 36.53808594 13.93994141 C39.1688143 18.7812987 41.82990043 23.49107197 45 28 C53.19621668 15.47379872 53.19621668 15.47379872 60.9765625 2.6875 C62 1 62 1 63 0 C65.14558827 -0.08775605 67.29404421 -0.10695219 69.44140625 -0.09765625 C70.74658203 -0.09443359 72.05175781 -0.09121094 73.39648438 -0.08789062 C74.7851569 -0.07953401 76.17382877 -0.07106905 77.5625 -0.0625 C78.95507656 -0.05748666 80.34765481 -0.05292347 81.74023438 -0.04882812 C85.1601987 -0.03699434 88.58007844 -0.0205088 92 0 C90.1799983 4.01260715 87.69109549 7.58020358 85.23828125 11.22265625 C84.76939987 11.92337753 84.30051849 12.62409882 83.81742859 13.34605408 C82.31797708 15.58634666 80.81546805 17.82456538 79.3125 20.0625 C75.95523716 25.06686681 72.60726664 30.07709965 69.27398682 35.09747314 C68.09720058 36.8548441 66.90080968 38.59668818 65.69677734 40.33544922 C65.04789551 41.29596191 64.39901367 42.25647461 63.73046875 43.24609375 C63.17125732 44.05618896 62.6120459 44.86628418 62.03588867 45.70092773 C60.71292896 48.63713126 60.9887106 49.97637728 62 53 C63.02679102 55.02856233 63.02679102 55.02856233 64.37890625 56.94921875 C65.13155762 58.07952515 65.13155762 58.07952515 65.89941406 59.23266602 C66.44823242 60.04276123 66.99705078 60.85285645 67.5625 61.6875 C72.73623094 69.48126135 77.7675727 77.34744373 82.67208862 85.31240845 C83.38906702 86.47649101 84.10742518 87.63972491 84.82717896 88.80209351 C85.84123247 90.44022964 86.85040532 92.08138397 87.859375 93.72265625 C88.44170898 94.66890869 89.02404297 95.61516113 89.62402344 96.59008789 C91 99 91 99 92 102 C87.98060937 102.22363929 83.96365228 102.38628486 79.93945312 102.49438477 C78.57325144 102.53946167 77.2074797 102.6007517 75.84277344 102.67895508 C64.5978518 103.30686494 64.5978518 103.30686494 60.95556641 100.32788086 C59.35998571 97.96385383 58.18813708 95.59149562 57 93 C55.94761994 91.23786378 54.87682531 89.48661088 53.7890625 87.74609375 C52.73208032 85.97793221 51.677401 84.20839206 50.625 82.4375 C50.07972656 81.52419922 49.53445313 80.61089844 48.97265625 79.66992188 C47.64638109 77.44782928 46.32220108 75.22451831 45 73 C42.3529943 75.55986911 40.44523566 78.21497046 38.4375 81.3125 C37.71046875 82.36566406 36.9834375 83.41882813 36.234375 84.50390625 C34.63062146 86.8951439 33.38035558 89.27696364 32.203125 91.90234375 C30.11871614 96.09589441 28.20321353 99.67162192 24 102 C15.15077785 103.74885813 5.91895629 102.8541623 -3 102 C1.36434212 93.62062623 6.67123583 85.89241239 11.98071289 78.09741211 C16.3645397 71.65017448 20.64420345 65.1475722 24.63671875 58.44921875 C25.30791748 57.33248779 25.97911621 56.21575684 26.6706543 55.06518555 C28.15265538 51.6480095 28.23008871 50.45073568 27 47 C26.07372139 44.83727783 26.07372139 44.83727783 24.8828125 42.734375 C24.44598145 41.93483398 24.00915039 41.13529297 23.55908203 40.31152344 C23.08583496 39.4662207 22.61258789 38.62091797 22.125 37.75 C21.63757324 36.87118164 21.15014648 35.99236328 20.64794922 35.08691406 C16.55422142 27.79721729 12.13068018 20.76014625 7.5078125 13.796875 C5.71372913 11.08951708 3.93127772 8.37571528 2.1796875 5.640625 C1.76187012 4.99125977 1.34405273 4.34189453 0.91357422 3.67285156 C0 2 0 2 0 0 Z " fill="#4A42F8" transform="translate(505,367)"/>
<path d="M0 0 C0 8.58 0 17.16 0 26 C-3.96 26.12375 -3.96 26.12375 -8 26.25 C-15.89106149 26.63817065 -21.4626264 27.4626264 -27.3125 33.3125 C-32.31289725 41.27609562 -32.46896283 47.97424653 -32.51171875 57.24609375 C-32.52858537 58.62616046 -32.54673826 60.006212 -32.56611633 61.38624573 C-32.61340792 64.99794775 -32.64335125 68.60958823 -32.66955566 72.22149658 C-32.69946719 75.91536612 -32.74596079 79.609024 -32.79101562 83.30273438 C-32.87681135 90.5350688 -32.94272628 97.76737316 -33 105 C-40.92 105 -48.84 105 -57 105 C-57 71.67 -57 38.34 -57 4 C-54.54724859 2.7736243 -52.9494219 2.88584686 -50.2109375 2.90234375 C-49.26992188 2.90556641 -48.32890625 2.90878906 -47.359375 2.91210938 C-46.37453125 2.92048828 -45.3896875 2.92886719 -44.375 2.9375 C-43.38242187 2.94201172 -42.38984375 2.94652344 -41.3671875 2.95117188 C-38.91143278 2.96297839 -36.45570894 2.98091418 -34 3 C-33.67 7.95 -33.34 12.9 -33 18 C-31.7625 15.958125 -31.7625 15.958125 -30.5 13.875 C-22.81083712 2.42228902 -13.54815931 0 0 0 Z " fill="#5336F6" transform="translate(666,364)"/>
<path d="M0 0 C7.40188274 -0.06900927 14.8026413 -0.12870429 22.20458984 -0.16479492 C24.72057892 -0.17984619 27.23654192 -0.20029181 29.75244141 -0.22631836 C33.37669325 -0.26286182 37.000597 -0.27976353 40.625 -0.29296875 C41.74302002 -0.30845261 42.86104004 -0.32393646 44.01293945 -0.33988953 C53.17348162 -0.34184683 60.14543193 1.27205104 66.9921875 7.67578125 C74.69906659 16.59716852 79.01935183 28.05982551 83 39 C83.26586914 39.72751465 83.53173828 40.4550293 83.80566406 41.20458984 C86.42591884 48.41415746 88.9581439 55.60308734 91 63 C90.34 63 89.68 63 89 63 C89 62.34 89 61.68 89 61 C88.34 61 87.68 61 87 61 C86.32243118 59.44219668 85.65840543 57.87849904 85 56.3125 C84.62875 55.44238281 84.2575 54.57226562 83.875 53.67578125 C82.98129512 50.9427998 82.83550324 48.85299066 83 46 C81.515 45.505 81.515 45.505 80 45 C80.66 45 81.32 45 82 45 C81.01 42.36 80.02 39.72 79 37 C78.67 37 78.34 37 78 37 C77.34 33.7 76.68 30.4 76 27 C74.515 27.495 74.515 27.495 73 28 C72.505 26.515 72.505 26.515 72 25 C72.66 25 73.32 25 74 25 C73.38125 23.948125 72.7625 22.89625 72.125 21.8125 C70.81764506 19.55891264 69.862417 17.60444889 69 15.125 C68.2041587 12.79670948 68.2041587 12.79670948 65.875 12.1875 C65.25625 12.125625 64.6375 12.06375 64 12 C64 10.35 64 8.7 64 7 C63.01 7 62.02 7 61 7 C60.4121875 6.2575 60.4121875 6.2575 59.8125 5.5 C57.31437006 3.43258212 55.26119633 3.89443053 52.140625 4.02734375 C48.85117 3.98532516 46.10836474 3.03612158 43 2 C42.67 2.66 42.34 3.32 42 4 C41.01 3.505 41.01 3.505 40 3 C37.30106819 2.91324462 34.62830769 2.88442103 31.9296875 2.90234375 C31.13345978 2.9037587 30.33723206 2.90517365 29.51687622 2.90663147 C26.9695462 2.91223655 24.42230353 2.92478986 21.875 2.9375 C20.14974085 2.94251435 18.42448033 2.94707737 16.69921875 2.95117188 C12.46611209 2.96220763 8.23307086 2.97947564 4 3 C3.36293813 7.01327525 2.86915771 10.78087424 3.12109375 14.83984375 C3.16943359 15.67451172 3.21777344 16.50917969 3.26757812 17.36914062 C3.32365234 18.21669922 3.37972656 19.06425781 3.4375 19.9375 C3.51581055 21.24944336 3.51581055 21.24944336 3.59570312 22.58789062 C3.7242021 24.72564632 3.86122641 26.86288669 4 29 C4.99 29 5.98 29 7 29 C7 29.66 7 30.32 7 31 C8.17949219 30.50886719 8.17949219 30.50886719 9.3828125 30.0078125 C13.97521422 28.72828805 18.13792039 28.78225597 22.875 28.875 C23.75414062 28.88402344 24.63328125 28.89304687 25.5390625 28.90234375 C27.6928271 28.92575423 29.84645014 28.9616199 32 29 C32 30.32 32 31.64 32 33 C33.98 32.505 33.98 32.505 36 32 C36.680625 33.2065625 36.680625 33.2065625 37.375 34.4375 C38.74725665 37.08856572 38.74725665 37.08856572 41 38 C41 38.99 41 39.98 41 41 C41.66 41 42.32 41 43 41 C46 44.46153846 46 44.46153846 46 47 C46.66 47 47.32 47 48 47 C47.9071875 48.0209375 47.9071875 48.0209375 47.8125 49.0625 C48.13853107 54.17032008 50.33515239 58.05813255 53.25 62.1875 C55 65 55 65 54.5625 66.9375 C54.376875 67.618125 54.19125 68.29875 54 69 C54.78144243 70.69312527 55.56372407 72.38588649 56.35546875 74.07421875 C58.10073521 79.28886337 55.84474215 85.08068761 54 90 C53.34 89.67 52.68 89.34 52 89 C51.15973604 90.76755526 50.32801278 92.53917263 49.5 94.3125 C49.0359375 95.29863281 48.571875 96.28476562 48.09375 97.30078125 C46.81222528 99.97800126 46.81222528 99.97800126 47 103 C46.01 103.495 46.01 103.495 45 104 C44.855625 104.639375 44.71125 105.27875 44.5625 105.9375 C44 108 44 108 41 110 C40.32558869 111.6635479 39.6599679 113.33066942 39 115 C37.68133728 116.678298 36.34919532 118.34614767 35 120 C34.505 121.485 34.505 121.485 34 123 C34.66 123.33 35.32 123.66 36 124 C35.38125 124.226875 34.7625 124.45375 34.125 124.6875 C31.33211153 126.41251935 31.06754035 127.93971766 30 131 C28.5 133.8125 28.5 133.8125 27 136 C26.34 136 25.68 136 25 136 C24.938125 136.845625 24.87625 137.69125 24.8125 138.5625 C23.97175323 142.11950558 22.59807856 144.14135238 20.40234375 147.01171875 C17.0935738 151.70298311 14.65572729 156.99638884 12.875 162.4375 C11.94738878 165.15407573 10.97431076 166.02568924 9 168 C8.64386903 169.66194453 8.30791692 171.328451 8 173 C7.34 173.33 6.68 173.66 6 174 C4.94647157 176.30965848 3.94280904 178.6429774 3 181 C2.34 181 1.68 181 1 181 C0.84144531 181.65226563 0.68289062 182.30453125 0.51953125 182.9765625 C-1.07763608 188.95932188 -2.86819354 192.44441852 -7 197 C-7.67271775 198.66423347 -8.33897067 200.33108944 -9 202 C-9.92209815 203.42003115 -10.88189331 204.81618947 -11.875 206.1875 C-15.07861695 210.85158939 -17.11391176 215.68566901 -19 221 C-19.66 221 -20.32 221 -21 221 C-21.309375 222.093125 -21.61875 223.18625 -21.9375 224.3125 C-22.58337897 226.55407994 -23.2623117 228.7869351 -24 231 C-12.45 231 -0.9 231 11 231 C11 231.66 11 232.32 11 233 C-2.2 233 -15.4 233 -29 233 C-26.75391048 226.26173145 -26.75391048 226.26173145 -24.70703125 222.8046875 C-24.24949463 222.02109863 -23.79195801 221.23750977 -23.32055664 220.43017578 C-22.82289795 219.58696777 -22.32523926 218.74375977 -21.8125 217.875 C-16.87794924 209.38615006 -12.16645731 200.79709904 -7.5625 192.125 C-2.9318847 183.40892127 1.78821473 174.75663143 6.6875 166.1875 C10.96212521 158.70706803 15.05349603 151.15857499 19 143.5 C22.94652749 135.84137936 27.038771 128.29347425 31.3125 120.8125 C36.04681937 112.51077097 40.69294183 104.16639248 45.23275757 95.75692749 C45.90540278 94.51251468 46.58035429 93.26934546 47.25772095 92.02749634 C48.20445698 90.2901411 49.14148317 88.54750546 50.078125 86.8046875 C50.88878418 85.30397705 50.88878418 85.30397705 51.71582031 83.77294922 C53.52894425 79.85784243 54.37007 77.41211883 53.2590332 73.17260742 C52.86031006 72.16045166 52.46158691 71.1482959 52.05078125 70.10546875 C51.61443359 68.98462891 51.17808594 67.86378906 50.72851562 66.70898438 C50.26123047 65.54689453 49.79394531 64.38480469 49.3125 63.1875 C48.64057617 61.46176758 48.64057617 61.46176758 47.95507812 59.70117188 C42.17325929 44.373491 42.17325929 44.373491 30 34 C26.76134365 32.92044788 24.20844162 32.79558259 20.80078125 32.68359375 C19.16749878 32.62643188 19.16749878 32.62643188 17.5012207 32.56811523 C16.11894287 32.52501221 14.73666504 32.48190918 13.3125 32.4375 C8.919375 32.293125 4.52625 32.14875 0 32 C0 21.44 0 10.88 0 0 Z " fill="#1795F3" transform="translate(82,269)"/>
<path d="M0 0 C0.08165496 2.20770805 0.13948488 4.41630425 0.1875 6.625 C0.23970703 8.46964844 0.23970703 8.46964844 0.29296875 10.3515625 C-0.08805146 15.09653423 -1.45952366 18.29160443 -4.6484375 21.828125 C-5.21820312 22.29734375 -5.78796875 22.7665625 -6.375 23.25 C-6.93960938 23.72953125 -7.50421875 24.2090625 -8.0859375 24.703125 C-13.97067438 28.69033447 -20.10915596 28.75653446 -27 28 C-31.10208803 26.56426919 -33.55962806 24.66055791 -36 21 C-36.79532226 16.06063017 -36.85156757 12.21283867 -33.9375 8.0625 C-27.95315894 3.86072862 -22.04431127 2.39719263 -14.9375 1.3125 C-14.16083984 1.18294922 -13.38417969 1.05339844 -12.58398438 0.91992188 C-8.34532717 0.24159316 -4.30765128 -0.14473708 0 0 Z " fill="#06122F" transform="translate(731,422)"/>
<path d="M0 0 C3.895058 2.96220798 6.68461204 7.06453658 8.859375 11.4140625 C8.859375 14.0540625 8.859375 16.6940625 8.859375 19.4140625 C-4.670625 19.4140625 -18.200625 19.4140625 -32.140625 19.4140625 C-30.99180601 10.22351061 -28.802131 6.2820758 -21.85546875 0.671875 C-15.2204532 -4.19481066 -7.05015389 -3.91988556 0 0 Z " fill="#06122E" transform="translate(466.140625,387.5859375)"/>
<path d="M0 0 C2 3 2 3 2.5 5.125 C2.665 5.74375 2.83 6.3625 3 7 C3.66 7.33 4.32 7.66 5 8 C5.74609375 9.75 5.74609375 9.75 6.4375 12 C6.82421875 13.22783203 6.82421875 13.22783203 7.21875 14.48046875 C7.4765625 15.31191406 7.734375 16.14335937 8 17 C8.47529028 18.43878633 8.95439679 19.87631818 9.4375 21.3125 C10.28553146 23.84334388 11.12103318 26.37671577 11.9375 28.91796875 C15.3550294 41.38089284 15.3550294 41.38089284 23 51 C22.01 51.495 22.01 51.495 21 52 C22.61268692 54.71224618 24.24901874 57.37352812 26 60 C26 60.99 26 61.98 26 63 C28.44496043 64.71711243 28.44496043 64.71711243 31 66 C30.67 66.99 30.34 67.98 30 69 C31.485 68.505 31.485 68.505 33 68 C33.639375 68.78375 34.27875 69.5675 34.9375 70.375 C40.77607108 76.14833565 51.27793318 75.75090107 59 76 C62.63939932 75.68269476 62.63939932 75.68269476 66 75 C67.56763187 74.80865842 69.13679043 74.62953479 70.70703125 74.4609375 C71.91516479 74.33017822 71.91516479 74.33017822 73.14770508 74.19677734 C73.7589624 74.13184082 74.37021973 74.0669043 75 74 C75.086985 70.22931168 75.14038579 66.45888068 75.1875 62.6875 C75.21263672 61.61564453 75.23777344 60.54378906 75.26367188 59.43945312 C75.27333984 58.41142578 75.28300781 57.38339844 75.29296875 56.32421875 C75.3086792 55.37635498 75.32438965 54.42849121 75.34057617 53.4519043 C74.94475643 50.60228592 74.22175281 49.75023895 72 48 C72.33 47.01 72.66 46.02 73 45 C74.65 45 76.3 45 78 45 C78.02465392 49.53897705 78.04283789 54.07791543 78.05493164 58.61694336 C78.0599714 60.16219766 78.0668032 61.70744716 78.07543945 63.25268555 C78.08752076 65.46925029 78.09323173 67.68575218 78.09765625 69.90234375 C78.10281754 70.5971434 78.10797882 71.29194305 78.11329651 72.00779724 C78.11349277 73.6722933 78.06189129 75.33665499 78 77 C75.37400673 79.62599327 68.04263518 78.27420968 64.28417969 78.29516602 C62.16792578 78.31215539 60.05332869 78.35598006 57.9375 78.40039062 C47.16349805 78.52433299 37.40941165 76.90093568 28.8359375 69.8671875 C23.37671818 64.3150453 20.09741446 57.56795747 17.28515625 50.38671875 C17.03390488 49.74812927 16.7826535 49.10953979 16.52378845 48.45159912 C15.9738165 47.05218479 15.42576277 45.65201543 14.87939453 44.25119019 C13.95744857 41.89107124 13.02725293 39.53432226 12.09570312 37.17797852 C10.41207297 32.91385699 8.74419743 28.64379949 7.08374023 24.37060547 C6.39399111 22.60063963 5.70053674 20.83211391 5.00366211 19.06494141 C3.9844451 16.47895309 2.97730202 13.88855294 1.97265625 11.296875 C1.50098778 10.11106842 1.50098778 10.11106842 1.01979065 8.90130615 C-1.1139924 3.34197719 -1.1139924 3.34197719 0 0 Z " fill="#6D2CF7" transform="translate(169,424)"/>
<path d="M0 0 C8.58 0 17.16 0 26 0 C30.58789446 5.08537699 31.82766843 7.01656041 34 13 C35.31630361 15.2311092 36.66898071 17.44128586 38.0625 19.625 C39.84765625 22.5390625 39.84765625 22.5390625 41 25 C40.505 26.485 40.505 26.485 40 28 C39.34 28 38.68 28 38 28 C36.9375 26.125 36.9375 26.125 36 24 C36.33 23.34 36.66 22.68 37 22 C36.34 21.67 35.68 21.34 35 21 C32 15.57692308 32 15.57692308 32 13 C31.01 12.67 30.02 12.34 29 12 C27.00603743 9.33916031 25 6.38757675 25 3 C18.4 3 11.8 3 5 3 C3.15335245 8.26615033 3.15335245 8.26615033 2.78881836 13.33374023 C2.79219711 14.13154404 2.79557587 14.92934784 2.79905701 15.75132751 C2.81251663 16.59522537 2.82597626 17.43912323 2.83984375 18.30859375 C2.84504532 19.19354019 2.85024689 20.07848663 2.85560608 20.99024963 C2.87333911 23.80617086 2.90448092 26.62171984 2.9375 29.4375 C2.96523346 32.24967335 2.98995654 35.06179051 3.00868225 37.8740387 C3.02081443 39.61931609 3.0382915 41.36456738 3.06199646 43.10972595 C3.10062579 47.84725499 2.97460288 52.35221698 2 57 C1.01 57.495 1.01 57.495 0 58 C0 38.86 0 19.72 0 0 Z " fill="#2483F7" transform="translate(287,328)"/>
<path d="M0 0 C0.33 0 0.66 0 1 0 C1.01030746 0.89075226 1.02061493 1.78150452 1.03123474 2.69924927 C1.13024734 11.19837674 1.23288403 19.6974517 1.33933926 28.19648933 C1.39391451 32.56326433 1.44721026 36.93004623 1.49731445 41.296875 C1.71145139 59.88390577 1.9855265 78.43575728 3 97 C3 97.66 3 98.32 3 99 C4.134375 98.649375 5.26875 98.29875 6.4375 97.9375 C10.55919213 96.87952555 13.9496494 97.11884441 18.1171875 97.80859375 C20.08864731 98.17875195 20.08864731 98.17875195 22 97 C21.99555878 96.3287207 21.99111755 95.65744141 21.98654175 94.96582031 C21.94217711 87.95754126 21.91207906 80.94930233 21.89013672 73.94091797 C21.88010052 71.32794575 21.86646864 68.71498469 21.84912109 66.10205078 C21.82476837 62.33883908 21.81349279 58.57577633 21.8046875 54.8125 C21.79436493 53.65073242 21.78404236 52.48896484 21.77340698 51.29199219 C21.77256543 45.16103695 22.18837013 39.86742406 24 34 C25.0632084 37.44544723 25.08746696 40.55180625 25.02172852 44.14550781 C24.99158409 46.00698456 24.99158409 46.00698456 24.96083069 47.90606689 C24.93363664 49.25508857 24.90632576 50.60410789 24.87890625 51.953125 C24.85459196 53.33745529 24.83074906 54.72179394 24.80735779 56.10614014 C24.74464699 59.74269149 24.67554386 63.3790942 24.60510254 67.01550293 C24.53430132 70.72901667 24.469555 74.44263545 24.40429688 78.15625 C24.27545223 85.43761862 24.13929374 92.7188224 24 100 C16.08 100 8.16 100 0 100 C0 67 0 34 0 0 Z " fill="#6735FB" transform="translate(609,369)"/>
<path d="M0 0 C2.0859375 3.6796875 2.0859375 3.6796875 1.3125 6.5625 C0 9 0 9 -1.5625 10.5 C-3.47799512 12.49877752 -3.50767091 14.32735634 -4 17 C-4.99 17.495 -4.99 17.495 -6 18 C-7.05352843 20.30965848 -8.05719096 22.6429774 -9 25 C-9.66 25 -10.32 25 -11 25 C-11.15855469 25.65226562 -11.31710938 26.30453125 -11.48046875 26.9765625 C-13.07763608 32.95932188 -14.86819354 36.44441852 -19 41 C-19.67271775 42.66423347 -20.33897067 44.33108944 -21 46 C-21.92209815 47.42003115 -22.88189331 48.81618947 -23.875 50.1875 C-27.07861695 54.85158939 -29.11391176 59.68566901 -31 65 C-31.66 65 -32.32 65 -33 65 C-33.309375 66.093125 -33.61875 67.18625 -33.9375 68.3125 C-34.58337897 70.55407994 -35.2623117 72.7869351 -36 75 C-24.45 75 -12.9 75 -1 75 C-1 75.66 -1 76.32 -1 77 C-14.2 77 -27.4 77 -41 77 C-38.75391048 70.26173145 -38.75391048 70.26173145 -36.70703125 66.8046875 C-36.24941406 66.02101807 -35.79179688 65.23734863 -35.3203125 64.42993164 C-34.82273437 63.5868042 -34.32515625 62.74367676 -33.8125 61.875 C-28.8667201 53.36190925 -24.12599659 44.75249784 -19.5 36.0625 C-13.07471765 24.00033123 -6.5697311 11.98414052 0 0 Z " fill="#1C8EF2" transform="translate(94,425)"/>
<path d="M0 0 C7.44053015 5.8310037 11.18464104 11.97138674 15.05859375 20.61328125 C12.05859375 19.61328125 12.05859375 19.61328125 11.06640625 17.9765625 C10.77507812 17.29980469 10.48375 16.62304688 10.18359375 15.92578125 C8.27516887 11.86032443 6.15739705 8.87099754 3.05859375 5.61328125 C2.06859375 5.28328125 1.07859375 4.95328125 0.05859375 4.61328125 C-0.93140625 3.12828125 -0.93140625 3.12828125 -1.94140625 1.61328125 C-3.59957409 0.92574824 -5.26599961 0.25766842 -6.94140625 -0.38671875 C-7.43640625 -1.37671875 -7.43640625 -1.37671875 -7.94140625 -2.38671875 C-12.54690342 -3.49921161 -12.54690342 -3.49921161 -16.94140625 -2.38671875 C-17.60140625 -3.37671875 -18.26140625 -4.36671875 -18.94140625 -5.38671875 C-19.93140625 -5.05671875 -20.92140625 -4.72671875 -21.94140625 -4.38671875 C-22.66328125 -4.55171875 -23.38515625 -4.71671875 -24.12890625 -4.88671875 C-32.9083997 -6.44751759 -41.63181601 -2.98905334 -48.94140625 1.61328125 C-51.99871481 3.85530753 -53.82969989 5.44572171 -55.94140625 8.61328125 C-56.72515625 9.37640625 -57.50890625 10.13953125 -58.31640625 10.92578125 C-63.82260149 16.56307638 -65.62478474 21.48649064 -67.1328125 29.1015625 C-67.39964844 29.93042969 -67.66648437 30.75929688 -67.94140625 31.61328125 C-69.42640625 32.10828125 -69.42640625 32.10828125 -70.94140625 32.61328125 C-69.94471662 20.90217809 -63.35954588 10.22834305 -54.91015625 2.2421875 C-38.60643682 -11.24719941 -17.24094333 -12.38520528 0 0 Z " fill="#3B63F5" transform="translate(480.94140625,372.38671875)"/>
<path d="M0 0 C1.25941406 -0.020625 2.51882812 -0.04125 3.81640625 -0.0625 C13.69459756 -0.10396145 20.9516051 0.99003066 28.3671875 7.92578125 C36.07406659 16.84716852 40.39435183 28.30982551 44.375 39.25 C44.64086914 39.97751465 44.90673828 40.7050293 45.18066406 41.45458984 C47.80091884 48.66415746 50.3331439 55.85308734 52.375 63.25 C51.715 63.25 51.055 63.25 50.375 63.25 C50.375 62.59 50.375 61.93 50.375 61.25 C49.715 61.25 49.055 61.25 48.375 61.25 C47.69743118 59.69219668 47.03340543 58.12849904 46.375 56.5625 C46.00375 55.69238281 45.6325 54.82226562 45.25 53.92578125 C44.35629512 51.1927998 44.21050324 49.10299066 44.375 46.25 C43.385 45.92 42.395 45.59 41.375 45.25 C42.035 45.25 42.695 45.25 43.375 45.25 C42.385 42.61 41.395 39.97 40.375 37.25 C40.045 37.25 39.715 37.25 39.375 37.25 C38.385 32.3 38.385 32.3 37.375 27.25 C36.385 27.58 35.395 27.91 34.375 28.25 C33.88 26.765 33.88 26.765 33.375 25.25 C34.035 25.25 34.695 25.25 35.375 25.25 C34.75625 24.198125 34.1375 23.14625 33.5 22.0625 C32.19264506 19.80891264 31.237417 17.85444889 30.375 15.375 C29.5791587 13.04670948 29.5791587 13.04670948 27.25 12.4375 C26.63125 12.375625 26.0125 12.31375 25.375 12.25 C25.375 10.6 25.375 8.95 25.375 7.25 C24.385 7.25 23.395 7.25 22.375 7.25 C21.7871875 6.5075 21.7871875 6.5075 21.1875 5.75 C18.68937006 3.68258212 16.63619633 4.14443053 13.515625 4.27734375 C10.22617 4.23532516 7.48336474 3.28612158 4.375 2.25 C4.045 2.91 3.715 3.57 3.375 4.25 C2.715 3.92 2.055 3.59 1.375 3.25 C-1.8275115 3.22429177 -5.01435448 3.27824645 -8.21484375 3.37695312 C-10.01847804 3.4068379 -11.82310879 3.33472195 -13.625 3.25 C-14.285 2.59 -14.945 1.93 -15.625 1.25 C-11.12339502 -1.00080249 -4.94174925 0.01986633 0 0 Z " fill="#1799F4" transform="translate(120.625,268.75)"/>
<path d="M0 0 C0.33 0 0.66 0 1 0 C1.75953396 7.83938518 2.13972226 15.57886047 2.09765625 23.453125 C2.0962413 24.47935974 2.09482635 25.50559448 2.09336853 26.56292725 C2.0878388 29.79198309 2.07530021 33.02096565 2.0625 36.25 C2.05747589 38.4596344 2.0529146 40.66926991 2.04882812 42.87890625 C2.03789254 48.25262853 2.02122638 53.62630903 2 59 C0.76411133 59.14848389 -0.47177734 59.29696777 -1.74511719 59.44995117 C-4.55289788 59.79943716 -7.30602317 60.23109402 -10.078125 60.80078125 C-14.57614859 61.4702347 -18.74211617 61.84236327 -23 60 C-27.92362663 55.28898146 -30.68340651 48.75403728 -33.62695312 42.70751953 C-35.70712175 38.6056223 -38.18184959 34.78886957 -40.6875 30.9375 C-44.85343886 24.43968341 -44.85343886 24.43968341 -46 21 C-45.01 21 -44.02 21 -43 21 C-43 21.66 -43 22.32 -43 23 C-42.34 23.33 -41.68 23.66 -41 24 C-40.31867549 25.66072849 -39.65257873 27.327767 -39 29 C-38.34 29.66 -37.68 30.32 -37 31 C-37 31.99 -37 32.98 -37 34 C-36.34 34.33 -35.68 34.66 -35 35 C-33.80524734 36.92887779 -32.6674105 38.89328956 -31.5625 40.875 C-29.60995925 44.37523504 -27.86252169 47.21626331 -25 50 C-25 50.66 -25 51.32 -25 52 C-24.34 52.33 -23.68 52.66 -23 53 C-23 54.32 -23 55.64 -23 57 C-15.08 57 -7.16 57 1 57 C0.505 55.02 0.505 55.02 0 53 C-1.30104859 41.34991884 -0.95221317 29.75278479 -0.5625 18.0625 C-0.50910529 16.30015009 -0.4563671 14.53778016 -0.40429688 12.77539062 C-0.27707251 8.51665917 -0.14105821 4.25829476 0 0 Z " fill="#563CEF" transform="translate(391,410)"/>
<path d="M0 0 C8.91 0 17.82 0 27 0 C27 13.53 27 27.06 27 41 C26.67 41 26.34 41 26 41 C26 28.13 26 15.26 26 2 C18.3146947 2.59117733 10.66036296 3.18727526 3 4 C3.185625 4.680625 3.37125 5.36125 3.5625 6.0625 C4.08829126 9.59281275 3.54630817 12.47934733 3 16 C2.6931203 20.66482937 2.6931203 20.66482937 4 25 C4.30541539 33.6947945 3.55251021 42.3882751 3 51.0625 C2.90339172 52.6113123 2.80703545 54.16014033 2.7109375 55.70898438 C2.47686451 59.47284409 2.23937845 63.23647414 2 67 C1.67 67 1.34 67 1 67 C-0.14984709 20.97859327 -0.14984709 20.97859327 0 0 Z " fill="#2469DC" transform="translate(366,328)"/>
<path d="M0 0 C3.03861736 2.54002579 4.00849638 5.17613677 5.3125 8.87109375 C5.74296631 10.0725 6.17343262 11.27390625 6.61694336 12.51171875 C6.95482376 13.47150635 6.95482376 13.47150635 7.29953003 14.45068359 C8.4936055 17.83756501 9.71891968 21.21313559 10.94140625 24.58984375 C11.19201309 25.2838327 11.44261993 25.97782166 11.70082092 26.69284058 C14.34702251 34.00088428 17.11663023 41.25781132 19.9375 48.5 C20.38544922 49.66716553 20.83339844 50.83433105 21.29492188 52.03686523 C25.11269902 62.53358935 25.11269902 62.53358935 33 70 C35.80883637 70.57229868 35.80883637 70.57229868 38.75 70.6875 C39.73484375 70.75324219 40.7196875 70.81898438 41.734375 70.88671875 C42.48203125 70.92410156 43.2296875 70.96148437 44 71 C40.22395846 73.51736102 37.68994863 74.2628809 33.1875 73.5625 C32.465625 73.376875 31.74375 73.19125 31 73 C31 72.34 31 71.68 31 71 C30.34 71 29.68 71 29 71 C28.505 70.01 28.505 70.01 28 69 C26.515 68.01 26.515 68.01 25 67 C23 64 23 64 23 61 C22.34 61 21.68 61 21 61 C20.80664062 60.30132812 20.61328125 59.60265625 20.4140625 58.8828125 C20.15367187 57.97273438 19.89328125 57.06265625 19.625 56.125 C19.36976563 55.22007812 19.11453125 54.31515625 18.8515625 53.3828125 C18.1395685 50.85430274 18.1395685 50.85430274 16 49 C15.22688543 46.85559462 14.52735287 44.68417405 13.875 42.5 C13.52179688 41.3346875 13.16859375 40.169375 12.8046875 38.96875 C12 36 12 36 12 34 C11.34 33.67 10.68 33.34 10 33 C9.65458149 30.66842508 9.32205743 28.33491639 9 26 C8.34 25.01 7.68 24.02 7 23 C7 21.68 7 20.36 7 19 C6.34 19 5.68 19 5 19 C4.54427083 17.01432292 4.08854167 15.02864583 3.6328125 13.04296875 C3.01992277 10.72257026 3.01992277 10.72257026 1 8 C-0.47703393 5.59010253 -1.09643109 4.57858656 -0.625 1.75 C-0.41875 1.1725 -0.2125 0.595 0 0 Z " fill="#4E42EA" transform="translate(197,398)"/>
<path d="M0 0 C1.37424586 0.04015706 2.74860386 0.07665406 4.12304688 0.109375 C7.48071475 0.20362533 10.83268101 0.33509728 14.1875 0.5 C12.44008643 4.09002639 10.394608 7.35655209 8.1875 10.6875 C7.135625 12.28658203 7.135625 12.28658203 6.0625 13.91796875 C4.1875 16.5 4.1875 16.5 2.1875 17.5 C2.8475 14.86 3.5075 12.22 4.1875 9.5 C5.5075 9.17 6.8275 8.84 8.1875 8.5 C8.1875 7.84 8.1875 7.18 8.1875 6.5 C7.1975 6.17 6.2075 5.84 5.1875 5.5 C5.5175 4.84 5.8475 4.18 6.1875 3.5 C3.24422405 3.45585086 0.30686536 3.44197279 -2.63671875 3.4765625 C-5.8125 3.5 -5.8125 3.5 -8.14453125 3.3359375 C-10.45640974 3.20367314 -10.45640974 3.20367314 -13.8125 4.5 C-16.62966803 7.8928502 -18.64518565 11.67303051 -20.8125 15.5 C-22.06141105 17.3276747 -23.33128179 19.14126315 -24.625 20.9375 C-26.62460493 23.71498327 -28.36330733 26.39660692 -29.8125 29.5 C-30.4725 29.17 -31.1325 28.84 -31.8125 28.5 C-30.23059115 23.87799816 -27.74066317 20.17942323 -25 16.1875 C-24.13811113 14.92139698 -23.27743666 13.65446643 -22.41796875 12.38671875 C-21.97396729 11.75878418 -21.52996582 11.13084961 -21.07250977 10.48388672 C-19.74396702 8.52123816 -19.74396702 8.52123816 -18.89428711 6.25439453 C-15.23029066 -1.982525 -7.92724659 -0.40123583 0 0 Z " fill="#4051EE" transform="translate(582.8125,366.5)"/>
<path d="M0 0 C0.66 1.32 1.32 2.64 2 4 C1.401875 4.556875 0.80375 5.11375 0.1875 5.6875 C-2.64366592 8.68044683 -4.51242851 11.60693859 -5.875 15.5 C-7.32316263 18.71813918 -9.48599215 20.54730941 -12 23 C-13.485 25.475 -13.485 25.475 -15 28 C-7.41 27.67 0.18 27.34 8 27 C8.33 25.68 8.66 24.36 9 23 C9.66 23 10.32 23 11 23 C11 22.34 11 21.68 11 21 C11.66 21 12.32 21 13 21 C13.433125 19.88625 13.433125 19.88625 13.875 18.75 C14.82302644 16.43260203 15.84845911 14.22082885 17 12 C17.66 12 18.32 12 19 12 C19.66 10.02 20.32 8.04 21 6 C21.66 6 22.32 6 23 6 C23 5.01 23 4.02 23 3 C23.99 3.33 24.98 3.66 26 4 C24.14696531 6.8261367 22.27454593 9.62701797 20.33984375 12.3984375 C18.68436066 14.82809645 17.39254642 17.23291047 16.19140625 19.9140625 C14.11321248 24.10631735 12.19977268 27.67352799 8 30 C-0.84922215 31.74885813 -10.08104371 30.8541623 -19 30 C-15.3048656 23.02269779 -11.10559229 16.47591258 -6.6875 9.9375 C-5.71973633 8.49600586 -5.71973633 8.49600586 -4.73242188 7.02539062 C-3.15812107 4.68143166 -1.58060747 2.33970869 0 0 Z " fill="#6035F3" transform="translate(521,439)"/>
<path d="M0 0 C9.57 0 19.14 0 29 0 C30.959375 3.568125 32.91875 7.13625 34.9375 10.8125 C35.55488037 11.93374268 36.17226074 13.05498535 36.80834961 14.21020508 C37.29311768 15.09603271 37.77788574 15.98186035 38.27734375 16.89453125 C38.77484131 17.80050049 39.27233887 18.70646973 39.78491211 19.63989258 C41 22 41 22 42 25 C41.34 25.66 40.68 26.32 40 27 C38 24 38 24 38 20 C37.34 20 36.68 20 36 20 C35.608125 19.01 35.21625 18.02 34.8125 17 C33.25561787 13.31737497 31.22783696 10.10005452 28.98828125 6.796875 C28 5 28 5 28 2 C27.38253906 2.0721875 26.76507812 2.144375 26.12890625 2.21875 C11.46326179 3.82594391 11.46326179 3.82594391 5 2 C7.91819172 8.98503336 11.3728326 14.98468238 16 21 C15.34 21 14.68 21 14 21 C13.67 21.66 13.34 22.32 13 23 C12.39671875 21.98679687 11.7934375 20.97359375 11.171875 19.9296875 C10.36466331 18.57807723 9.55736714 17.22651741 8.75 15.875 C8.35425781 15.20984375 7.95851563 14.5446875 7.55078125 13.859375 C5.67614853 10.72474323 3.77647085 7.64044383 1.703125 4.6328125 C0 2 0 2 0 0 Z " fill="#385CEC" transform="translate(505,367)"/>
<path d="M0 0 C8.25 0 16.5 0 25 0 C20.5 3.375 20.5 3.375 16.890625 3.29296875 C16.13652344 3.28330078 15.38242188 3.27363281 14.60546875 3.26367188 C13.82816406 3.23853516 13.05085938 3.21339844 12.25 3.1875 C11.45722656 3.17396484 10.66445312 3.16042969 9.84765625 3.14648438 C7.89814436 3.11125223 5.94898374 3.05744821 4 3 C2.94443549 8.7626003 3.05168362 14.1059076 3.4375 19.9375 C3.48970703 20.81212891 3.54191406 21.68675781 3.59570312 22.58789062 C3.7242021 24.72564632 3.86122641 26.86288669 4 29 C4.99 29 5.98 29 7 29 C7 29.66 7 30.32 7 31 C12.94 31 18.88 31 25 31 C25 31.33 25 31.66 25 32 C16.75 32 8.5 32 0 32 C0 21.44 0 10.88 0 0 Z " fill="#06C3F5" transform="translate(82,269)"/>
<path d="M0 0 C0.66 0.33 1.32 0.66 2 1 C2 15.85 2 30.7 2 46 C8.6 46.33 15.2 46.66 22 47 C21.979375 45.494375 21.95875 43.98875 21.9375 42.4375 C21.92813503 35.26393541 22.45965545 28.14991625 23 21 C23.33 21 23.66 21 24 21 C24 29.91 24 38.82 24 48 C15.75 48 7.5 48 -1 48 C-1.02295623 41.8069198 -1.04286969 35.61398728 -1.05493164 29.42089844 C-1.05996013 27.31412251 -1.06678376 25.20735008 -1.07543945 23.10058594 C-1.08756989 20.07225686 -1.09324317 17.04397394 -1.09765625 14.015625 C-1.10281754 13.07382385 -1.10797882 12.13202271 -1.11329651 11.16168213 C-1.11337204 10.28107117 -1.11344757 9.40046021 -1.11352539 8.49316406 C-1.115746 7.72039124 -1.11796661 6.94761841 -1.12025452 6.15142822 C-0.99903582 3.98275023 -0.59739699 2.08363076 0 0 Z " fill="#643DFC" transform="translate(288,421)"/>
<path d="M0 0 C4.875 3.75 4.875 3.75 6 6 C6.66 6.33 7.32 6.66 8 7 C8.61875 7.66 9.2375 8.32 9.875 9 C12.0303305 11.02854635 13.13045754 11.59006536 16 12 C16 12.66 16 13.32 16 14 C31.11056943 19.51016391 31.11056943 19.51016391 47 19 C47.66 18.67 48.32 18.34 49 18 C49 18.66 49 19.32 49 20 C50.92128781 19.43207216 52.83691616 18.84497823 54.75 18.25 C55.81734375 17.92515625 56.8846875 17.6003125 57.984375 17.265625 C61.16886143 15.9291307 62.74942 14.57498793 65 12 C65.66 11.34 66.32 10.68 67 10 C67 10.66 67 11.32 67 12 C67.66 12 68.32 12 69 12 C69 11.01 69 10.02 69 9 C69.99 9 70.98 9 72 9 C70.54800889 12.67361684 68.81375864 14.08112756 65.4375 16.0625 C64.63183594 16.54847656 63.82617188 17.03445313 62.99609375 17.53515625 C55.74902973 21.0783753 49.24619264 22.53591009 41.1875 22.4375 C40.3123877 22.42992676 39.43727539 22.42235352 38.53564453 22.41455078 C24.14410467 22.0500396 12.57030694 16.02417073 2.49609375 5.9296875 C0.9333089 3.91398067 0.40463505 2.49432568 0 0 Z " fill="#5D37EE" transform="translate(418,449)"/>
<path d="M0 0 C2 3 2 3 2.5 5.125 C2.665 5.74375 2.83 6.3625 3 7 C3.66 7.33 4.32 7.66 5 8 C5.74609375 9.75 5.74609375 9.75 6.4375 12 C6.82421875 13.22783203 6.82421875 13.22783203 7.21875 14.48046875 C7.4765625 15.31191406 7.734375 16.14335937 8 17 C8.47529028 18.43878633 8.95439679 19.87631818 9.4375 21.3125 C10.28553146 23.84334388 11.12103318 26.37671577 11.9375 28.91796875 C15.3550294 41.38089284 15.3550294 41.38089284 23 51 C22.01 51.495 22.01 51.495 21 52 C22.61268692 54.71224618 24.24901874 57.37352812 26 60 C26 60.99 26 61.98 26 63 C28.44496043 64.71711243 28.44496043 64.71711243 31 66 C30.34 67.32 29.68 68.64 29 70 C24.11880768 64.12989079 20.4974215 58.43384326 17.72265625 51.36328125 C17.2828241 50.26848953 17.2828241 50.26848953 16.83410645 49.15158081 C15.88097637 46.77098197 14.93998451 44.38581683 14 42 C13.3392925 40.33822548 12.6784014 38.67652395 12.01733398 37.01489258 C10.32898715 32.7569989 8.66327913 28.49069079 7.00830078 24.21972656 C6.32575707 22.46329205 5.63911143 20.70844695 4.94873047 18.95507812 C3.93597652 16.38231447 2.9353871 13.80512275 1.9375 11.2265625 C1.62619141 10.44229889 1.31488281 9.65803528 0.99414062 8.8500061 C-1.11411704 3.34235111 -1.11411704 3.34235111 0 0 Z " fill="#5042EE" transform="translate(169,424)"/>
<path d="M0 0 C0.99 0.33 1.98 0.66 3 1 C3 2.32 3 3.64 3 5 C3.66 5 4.32 5 5 5 C8 8.46153846 8 8.46153846 8 11 C8.99 11.33 9.98 11.66 11 12 C11.11214844 12.72703125 11.22429688 13.4540625 11.33984375 14.203125 C12.44139798 18.8700648 14.73333304 22.51027869 18 26 C21.20370881 26.99023727 22.75434531 27.11856273 26 27 C27.9714425 27.01601172 29.94288497 27.03213873 31.91430664 27.05053711 C34.94349601 27.0679116 37.97100055 27.03549609 41 27 C41.495 25.515 41.495 25.515 42 24 C43.37562854 25.28965176 44.70766393 26.62689293 46 28 C46 28.66 46 29.32 46 30 C41.98060937 30.22363929 37.96365228 30.38628486 33.93945312 30.49438477 C32.57325144 30.53946167 31.2074797 30.6007517 29.84277344 30.67895508 C18.57393996 31.30820016 18.57393996 31.30820016 14.93798828 28.28613281 C13.35836677 25.93289256 12.18331137 23.57344585 11 21 C10.02316048 19.41681829 9.02567501 17.84618668 8.0078125 16.2890625 C7.04499282 14.73553993 6.08405108 13.18085189 5.125 11.625 C4.62742187 10.83222656 4.12984375 10.03945313 3.6171875 9.22265625 C3.14796875 8.46082031 2.67875 7.69898438 2.1953125 6.9140625 C1.77266113 6.2329541 1.35000977 5.5518457 0.91455078 4.85009766 C0 3 0 3 0 0 Z " fill="#5F35F2" transform="translate(551,439)"/>
<path d="M0 0 C2 3.75 2 3.75 2 6 C-19.78 6 -41.56 6 -64 6 C-64 5.34 -64 4.68 -64 4 C-42.88 4 -21.76 4 0 4 C0 2.68 0 1.36 0 0 Z " fill="#4F42F6" transform="translate(498,420)"/>
<path d="M0 0 C6.93 0 13.86 0 21 0 C21 1.32 21 2.64 21 4 C22.32 3.67 23.64 3.34 25 3 C25.680625 4.2065625 25.680625 4.2065625 26.375 5.4375 C27.74725665 8.08856572 27.74725665 8.08856572 30 9 C30 9.99 30 10.98 30 12 C30.66 12 31.32 12 32 12 C35 15.46153846 35 15.46153846 35 18 C35.66 18 36.32 18 37 18 C36.67 20.31 36.34 22.62 36 25 C33.91692291 22.50030749 32.48773994 19.99294482 31.125 17.0625 C27.95894798 10.5859373 23.22263688 7.03143072 16.83203125 3.95703125 C13.29898888 2.76310659 9.88035539 2.54462398 6.1875 2.375 C5.49462891 2.33632813 4.80175781 2.29765625 4.08789062 2.2578125 C2.39232985 2.16426432 0.69620288 2.08107636 -1 2 C-0.67 1.34 -0.34 0.68 0 0 Z " fill="#0EAAF2" transform="translate(93,298)"/>
<path d="M0 0 C0.33 0 0.66 0 1 0 C1.75953396 7.83938518 2.13972226 15.57886047 2.09765625 23.453125 C2.0962413 24.47935974 2.09482635 25.50559448 2.09336853 26.56292725 C2.0878388 29.79198309 2.07530021 33.02096565 2.0625 36.25 C2.05747589 38.4596344 2.0529146 40.66926991 2.04882812 42.87890625 C2.03789253 48.25263175 2.02067785 53.62630352 2 59 C-0.97 58.67 -3.94 58.34 -7 58 C-7 57.67 -7 57.34 -7 57 C-4.36 57 -1.72 57 1 57 C0.84716553 56.47414307 0.69433105 55.94828613 0.53686523 55.40649414 C-2.14822261 43.37060926 -0.96995142 30.2848817 -0.5625 18.0625 C-0.50910529 16.30015009 -0.4563671 14.53778016 -0.40429688 12.77539062 C-0.27707251 8.51665917 -0.14105821 4.25829476 0 0 Z " fill="#5143F4" transform="translate(391,410)"/>
<path d="M0 0 C1.21236328 0.01353516 1.21236328 0.01353516 2.44921875 0.02734375 C3.37154297 0.04474609 3.37154297 0.04474609 4.3125 0.0625 C3.9825 0.7225 3.6525 1.3825 3.3125 2.0625 C2.3225 2.0625 1.3325 2.0625 0.3125 2.0625 C-0.0175 2.7225 -0.3475 3.3825 -0.6875 4.0625 C-2.0075 4.0625 -3.3275 4.0625 -4.6875 4.0625 C-8.97400514 5.04312163 -12.69194802 6.00661154 -15.75 9.25 C-16.059375 9.848125 -16.36875 10.44625 -16.6875 11.0625 C-17.3475 10.7325 -18.0075 10.4025 -18.6875 10.0625 C-19.0175 11.0525 -19.3475 12.0425 -19.6875 13.0625 C-20.47125 13.68125 -21.255 14.3 -22.0625 14.9375 C-26.38237965 18.95686629 -26.68961516 25.52139963 -27.6875 31.0625 C-28.0175 31.0625 -28.3475 31.0625 -28.6875 31.0625 C-29.81896701 26.46120081 -30.37522489 23.627667 -28.44140625 19.2265625 C-22.22017978 9.11187359 -12.63042358 -0.18304962 0 0 Z " fill="#583BF2" transform="translate(704.6875,364.9375)"/>
<path d="M0 0 C2.76879525 3.30785274 4.24134994 6.68388071 5.8125 10.6875 C6.06676758 11.33525391 6.32103516 11.98300781 6.58300781 12.65039062 C10.45661178 22.6219503 14.15243606 32.68429666 17 43 C16.34 43 15.68 43 15 43 C15 42.34 15 41.68 15 41 C14.34 41 13.68 41 13 41 C12.32243118 39.44219668 11.65840543 37.87849904 11 36.3125 C10.62875 35.44238281 10.2575 34.57226562 9.875 33.67578125 C8.98129512 30.9427998 8.83550324 28.85299066 9 26 C8.01 25.67 7.02 25.34 6 25 C6.66 25 7.32 25 8 25 C7.01 22.36 6.02 19.72 5 17 C4.67 17 4.34 17 4 17 C3.34 13.7 2.68 10.4 2 7 C1.01 7.33 0.02 7.66 -1 8 C-1.33 7.01 -1.66 6.02 -2 5 C-1.34 5 -0.68 5 0 5 C-0.2784375 4.0409375 -0.2784375 4.0409375 -0.5625 3.0625 C-0.7790625 2.0415625 -0.7790625 2.0415625 -1 1 C-0.67 0.67 -0.34 0.34 0 0 Z " fill="#2081F0" transform="translate(156,289)"/>
<path d="M0 0 C0.66 0.66 1.32 1.32 2 2 C1.2265625 1.95359375 0.453125 1.9071875 -0.34375 1.859375 C-8.29459466 1.58385068 -13.60954264 2.22960723 -19.71484375 7.47265625 C-24.50149714 12.42315597 -24.84939456 15.83131521 -27 23 C-13.47 23 0.06 23 14 23 C14 23.33 14 23.66 14 24 C0.14 24 -13.72 24 -28 24 C-28.84659319 19.76703406 -29.11901779 18.17374701 -28.25 14.25 C-28.09015625 13.47140625 -27.9303125 12.6928125 -27.765625 11.890625 C-27.38664062 10.95476562 -27.38664062 10.95476562 -27 10 C-26.01 9.67 -25.02 9.34 -24 9 C-23.67 8.34 -23.34 7.68 -23 7 C-22.34 7 -21.68 7 -21 7 C-21 6.34 -21 5.68 -21 5 C-20.34 5 -19.68 5 -19 5 C-19 4.34 -19 3.68 -19 3 C-12.67751333 0.13698717 -6.95315031 -0.9013343 0 0 Z " fill="#435EF6" transform="translate(461,384)"/>
<path d="M0 0 C1.0859375 1.796875 1.0859375 1.796875 2 4 C0.625 7.25 0.625 7.25 -1 10 C-1.66 10 -2.32 10 -3 10 C-3.309375 11.093125 -3.61875 12.18625 -3.9375 13.3125 C-4.58337897 15.55407994 -5.2623117 17.7869351 -6 20 C5.55 20 17.1 20 29 20 C29 20.66 29 21.32 29 22 C15.8 22 2.6 22 -11 22 C-8.75 15.25 -8.75 15.25 -6.8359375 11.9140625 C-6.43632813 11.21152344 -6.03671875 10.50898438 -5.625 9.78515625 C-5.2125 9.07230469 -4.8 8.35945313 -4.375 7.625 C-3.95476563 6.88894531 -3.53453125 6.15289062 -3.1015625 5.39453125 C-2.07247236 3.5936235 -1.03689244 1.79642682 0 0 Z " fill="#258BF6" transform="translate(64,480)"/>
<path d="M0 0 C0.33 0 0.66 0 1 0 C1.66 19.14 2.32 38.28 3 58 C0.49147051 55.49147051 -0.72239004 53.98701988 -2.25 50.9375 C-2.60578125 50.24527344 -2.9615625 49.55304688 -3.328125 48.83984375 C-3.66070312 47.92912109 -3.66070312 47.92912109 -4 47 C-3.67 46.34 -3.34 45.68 -3 45 C-2.34 45.99 -1.68 46.98 -1 48 C-0.67 32.16 -0.34 16.32 0 0 Z " fill="#040C18" transform="translate(366,365)"/>
<path d="M0 0 C3.25492655 2.64868087 4.22492492 5.72416339 5.62890625 9.609375 C5.98165871 10.57692719 5.98165871 10.57692719 6.34153748 11.56402588 C6.83699575 12.92766042 7.32845205 14.29275481 7.81616211 15.65917969 C8.55594443 17.73163496 9.30704725 19.79968508 10.06054688 21.8671875 C12.23355346 27.86802841 14.2996446 33.84783185 16 40 C15.01 40.495 15.01 40.495 14 41 C13.71125 39.865625 13.4225 38.73125 13.125 37.5625 C12.75375 36.386875 12.3825 35.21125 12 34 C11.34 33.67 10.68 33.34 10 33 C9.65458149 30.66842508 9.32205743 28.33491639 9 26 C8.34 25.01 7.68 24.02 7 23 C7 21.68 7 20.36 7 19 C6.34 19 5.68 19 5 19 C4.54427083 17.01432292 4.08854167 15.02864583 3.6328125 13.04296875 C3.01992277 10.72257026 3.01992277 10.72257026 1 8 C-0.47703393 5.59010253 -1.09643109 4.57858656 -0.625 1.75 C-0.41875 1.1725 -0.2125 0.595 0 0 Z " fill="#4551F3" transform="translate(197,398)"/>
<path d="M0 0 C1.11117187 0.04189453 2.22234375 0.08378906 3.3671875 0.12695312 C4.49382812 0.14951172 5.62046875 0.17207031 6.78125 0.1953125 C9.56123982 0.25421059 12.33854082 0.33641112 15.1171875 0.43945312 C14.7871875 1.09945313 14.4571875 1.75945312 14.1171875 2.43945312 C13.50198242 2.41326904 12.88677734 2.38708496 12.25292969 2.36010742 C9.45794342 2.25599392 6.66336492 2.19108563 3.8671875 2.12695312 C2.89910156 2.08505859 1.93101562 2.04316406 0.93359375 2 C-1.75770737 1.95359826 -4.23118784 1.97093617 -6.8828125 2.43945312 C-9.41487543 4.67976585 -9.41487543 4.67976585 -10.8828125 7.43945312 C-16.51465038 11.72317769 -22.16666452 12.58407332 -29.0703125 12.62695312 C-30.11574219 12.64113281 -31.16117187 12.6553125 -32.23828125 12.66992188 C-34.8828125 12.43945312 -34.8828125 12.43945312 -36.8828125 10.43945312 C-33.52583214 9.32045967 -31.21747129 9.47417484 -27.6953125 9.62695312 C-21.92373402 9.66551601 -17.45139233 9.13883679 -12.8828125 5.43945312 C-12.40457031 4.57320313 -11.92632812 3.70695312 -11.43359375 2.81445312 C-7.79090994 -0.57720347 -4.835631 -0.07282577 0 0 Z " fill="#593BF4" transform="translate(483.8828125,438.560546875)"/>
<path d="M0 0 C0.33 0 0.66 0 1 0 C1 13.86 1 27.72 1 42 C0.01 42 -0.98 42 -2 42 C-2 30.12 -2 18.24 -2 6 C-1.67 6 -1.34 6 -1 6 C-0.67 4.02 -0.34 2.04 0 0 Z " fill="#0D1546" transform="translate(635,427)"/>
<path d="M0 0 C2.77244098 1.12951299 4.09504616 2.11232728 6.0625 4.4375 C14.65001943 11.92874035 28.20850605 10.67569604 39 11 C38.67 11.66 38.34 12.32 38 13 C24.06062329 13.40998167 12.61195428 13.70543278 1.625 3.875 C0 2 0 2 0 0 Z " fill="#6C29E9" transform="translate(674,458)"/>
<path d="M0 0 C1.32004089 3.96012268 0.23217413 4.96721524 -1.4375 8.75 C-6.27728439 21.10602981 -4.39679543 35.95947096 -4 49 C-10.69552552 36.30926794 -6.9035531 19.10478539 -3 6 C-3 5.01 -3 4.02 -3 3 C-1.5 1.3125 -1.5 1.3125 0 0 Z " fill="#040D1C" transform="translate(414,387)"/>
<path d="M0 0 C1 3 1 3 -0.07641602 5.55273438 C-0.62998779 6.55626953 -1.18355957 7.55980469 -1.75390625 8.59375 C-2.36169922 9.7075 -2.96949219 10.82125 -3.59570312 11.96875 C-4.25104202 13.14597814 -4.90664222 14.32306086 -5.5625 15.5 C-6.18447266 16.634375 -6.80644531 17.76875 -7.44726562 18.9375 C-8.68605609 21.1950241 -9.92901186 23.45026789 -11.17626953 25.703125 C-13.80591948 30.45691254 -16.40352506 35.2280349 -19 40 C-19.66 39.34 -20.32 38.68 -21 38 C-17.79207575 31.29252203 -13.95867091 24.93724769 -10.20703125 18.5234375 C-9.68238281 17.6159375 -9.15773438 16.7084375 -8.6171875 15.7734375 C-8.13878418 14.95278809 -7.66038086 14.13213867 -7.16748047 13.28662109 C-6.08271931 11.16201361 -5.54679808 9.30306589 -5 7 C-4.02149805 5.97895449 -3.02019573 4.9793879 -2 4 C-0.82425289 1.90010348 -0.82425289 1.90010348 0 0 Z " fill="#2680F1" transform="translate(136,419)"/>
<path d="M0 0 C0.66 0.33 1.32 0.66 2 1 C2.02923559 4.85415052 2.04687777 8.70827215 2.0625 12.5625 C2.07087891 13.64853516 2.07925781 14.73457031 2.08789062 15.85351562 C2.12167957 26.97007841 2.12167957 26.97007841 1 32 C0.01 32.495 0.01 32.495 -1 33 C-1.02927916 29.00001563 -1.04689219 25.00005924 -1.0625 21 C-1.07087891 19.87464844 -1.07925781 18.74929688 -1.08789062 17.58984375 C-1.10533416 11.62415603 -0.91781223 5.89712427 0 0 Z " fill="#2673FB" transform="translate(288,353)"/>
<path d="M0 0 C2 2 2 2 2.1875 5.55859375 C2.01899843 13.06744477 1.47736081 20.56809544 1 28.0625 C0.90339172 29.6113123 0.80703545 31.16014033 0.7109375 32.70898438 C0.47686451 36.47284409 0.23937845 40.23647414 0 44 C-0.33 44 -0.66 44 -1 44 C-1.02479671 38.69808286 -1.04290578 33.3961998 -1.05493164 28.09423828 C-1.05994733 26.29214896 -1.06676146 24.49006369 -1.07543945 22.68798828 C-1.08762636 20.09146118 -1.09325606 17.49498808 -1.09765625 14.8984375 C-1.10281754 14.0982016 -1.10797882 13.2979657 -1.11329651 12.47348022 C-1.11372102 8.20008833 -0.85075701 4.20962814 0 0 Z " fill="#2D5AE1" transform="translate(368,351)"/>
<path d="M0 0 C1.65 0 3.3 0 5 0 C4.67 0.886875 4.34 1.77375 4 2.6875 C2.95736266 6.27156585 2.92901139 9.52753498 3 13.25 C3.11386913 19.39181633 2.34239304 25.01915958 1 31 C0.67 31 0.34 31 0 31 C0 20.77 0 10.54 0 0 Z " fill="#1B88FB" transform="translate(287,330)"/>
<path d="M0 0 C3 3.75 3 3.75 3 6 C8.28 6 13.56 6 19 6 C19 5.34 19 4.68 19 4 C20.65 4 22.3 4 24 4 C24.33 4.66 24.66 5.32 25 6 C24.67 6.66 24.34 7.32 24 8 C16.08 8 8.16 8 0 8 C0 5.36 0 2.72 0 0 Z " fill="#6638FD" transform="translate(675,390)"/>
<path d="M0 0 C4.00701471 3.52468887 6.37620929 7.67824346 9 12.25 C9.42539062 12.97574219 9.85078125 13.70148438 10.2890625 14.44921875 C13.0565983 19.21175736 15.58162726 24.05129282 18 29 C14.2109375 28.2734375 14.2109375 28.2734375 12.3125 25.8125 C10.92347372 22.83601512 10.37795532 20.25041578 10 17 C9.01 16.67 8.02 16.34 7 16 C6.62360638 14.67817674 6.29937088 13.3413672 6 12 C5.02458701 10.26533203 3.99991668 8.55778765 2.9375 6.875 C0 2.21647059 0 2.21647059 0 0 Z " fill="#444DEE" transform="translate(351,395)"/>
<path d="M0 0 C0.66 0.33 1.32 0.66 2 1 C2.19148936 20.34042553 2.19148936 20.34042553 1 30 C0.67 30 0.34 30 0 30 C-0.8664583 24.0430992 -1.10965469 18.19710763 -1.125 12.1875 C-1.12951172 11.44636963 -1.13402344 10.70523926 -1.13867188 9.94165039 C-1.12926755 6.49300613 -1.08960195 3.29474874 0 0 Z " fill="#4D45FA" transform="translate(288,421)"/>
<path d="M0 0 C8.58 0 17.16 0 26 0 C26 0.99 26 1.98 26 3 C22.97910522 3.02716089 19.95845871 3.04691657 16.9375 3.0625 C16.08994141 3.07087891 15.24238281 3.07925781 14.36914062 3.08789062 C9.4638278 3.10683006 4.83555245 2.83326345 0 2 C0 1.34 0 0.68 0 0 Z " fill="#1A80E1" transform="translate(287,328)"/>
<path d="M0 0 C2 3 2 3 2.5 5.125 C2.665 5.74375 2.83 6.3625 3 7 C3.66 7.33 4.32 7.66 5 8 C5.78125 9.85546875 5.78125 9.85546875 6.5 12.1875 C6.75394531 13.00089844 7.00789062 13.81429688 7.26953125 14.65234375 C7.51058594 15.42707031 7.75164062 16.20179688 8 17 C8.391875 18.0725 8.78375 19.145 9.1875 20.25 C9.99685565 22.9893576 10.1669151 25.16244331 10 28 C6.4052021 24.4052021 5.14123283 19.24032509 3.3125 14.5625 C2.66958008 12.96825195 2.66958008 12.96825195 2.01367188 11.34179688 C1.61341797 10.32279297 1.21316406 9.30378906 0.80078125 8.25390625 C0.43122314 7.31877197 0.06166504 6.3836377 -0.3190918 5.42016602 C-1 3 -1 3 0 0 Z " fill="#4355F2" transform="translate(169,424)"/>
<path d="M0 0 C14.78132118 -0.3690205 14.78132118 -0.3690205 21 2 C19.35 3.32 17.7 4.64 16 6 C15.01 5.01 14.02 4.02 13 3 C12.01 3.33 11.02 3.66 10 4 C8.3222433 3.72793135 6.65549531 3.38499891 5 3 C3.00102872 2.66055205 1.00124361 2.32578384 -1 2 C-0.67 1.34 -0.34 0.68 0 0 Z " fill="#2F60E3" transform="translate(449,364)"/>
<path d="M0 0 C2.96082171 3.47652039 4.5449593 7.35678468 6.1875 11.5625 C6.46013672 12.23474609 6.73277344 12.90699219 7.01367188 13.59960938 C8.18137285 16.54666423 9 18.80156144 9 22 C8.34 22 7.68 22 7 22 C6.34 20.35 5.68 18.7 5 17 C4.67 17 4.34 17 4 17 C3.34 13.7 2.68 10.4 2 7 C1.01 7.33 0.02 7.66 -1 8 C-1.33 7.01 -1.66 6.02 -2 5 C-1.34 5 -0.68 5 0 5 C-0.2784375 4.0409375 -0.2784375 4.0409375 -0.5625 3.0625 C-0.7790625 2.0415625 -0.7790625 2.0415625 -1 1 C-0.67 0.67 -0.34 0.34 0 0 Z " fill="#1B83E4" transform="translate(156,289)"/>
<path d="M0 0 C0.66 0.99 1.32 1.98 2 3 C1.35546875 4.11375 0.7109375 5.2275 0.046875 6.375 C-2.38444176 11.23763353 -2.6593213 15.63346995 -2.75 21 C-2.77964844 21.87011719 -2.80929687 22.74023438 -2.83984375 23.63671875 C-2.90975408 25.75733216 -2.95723116 27.87866563 -3 30 C-7.13274985 22.26818956 -5.20310273 13.36521698 -2.8515625 5.27734375 C-2 3 -2 3 0 0 Z " fill="#642FEB" transform="translate(675,420)"/>
<path d="M0 0 C0.99 0 1.98 0 3 0 C3 0.66 3 1.32 3 2 C3.66 2.33 4.32 2.66 5 3 C5.68132451 4.66072849 6.34742127 6.327767 7 8 C7.66 8.66 8.32 9.32 9 10 C9 10.99 9 11.98 9 13 C9.66 13.33 10.32 13.66 11 14 C12.1875 15.875 12.1875 15.875 13 18 C12.67 18.99 12.34 19.98 12 21 C9.99645958 17.68962903 7.99776448 14.37635933 6 11.0625 C5.42765625 10.11697266 4.8553125 9.17144531 4.265625 8.19726562 C3.72421875 7.29814453 3.1828125 6.39902344 2.625 5.47265625 C2.12226563 4.64000244 1.61953125 3.80734863 1.1015625 2.94946289 C0 1 0 1 0 0 Z " fill="#4F43EE" transform="translate(345,431)"/>
<path d="M0 0 C1.875 0.1875 1.875 0.1875 4 1 C5.125 3.4375 5.125 3.4375 6 6 C6.66 6.66 7.32 7.32 8 8 C8.72754304 9.65350692 9.45066816 11.30931987 10.13671875 12.98046875 C11.59857482 16.40028588 13.31393451 19.68600922 15 23 C14.34 23.33 13.68 23.66 13 24 C11.20706552 20.75069788 9.41587478 17.50043773 7.625 14.25 C7.11710938 13.32960938 6.60921875 12.40921875 6.0859375 11.4609375 C5.59609375 10.57148438 5.10625 9.68203125 4.6015625 8.765625 C4.15119629 7.94868164 3.70083008 7.13173828 3.23681641 6.29003906 C2.11466778 4.21231421 1.04232259 2.11868021 0 0 Z " fill="#4650ED" transform="translate(519,390)"/>
<path d="M0 0 C-2.3824855 2.3824855 -3.48551698 2.41815043 -6.75 2.9375 C-10.9510199 3.69635475 -14.23753224 4.93064273 -18 7 C-18.66 7 -19.32 7 -20 7 C-19 4 -19 4 -16.5234375 2.578125 C-6.12312289 -1.80910449 -6.12312289 -1.80910449 0 0 Z " fill="#3167EF" transform="translate(451,366)"/>
<path d="M0 0 C2.475 0.495 2.475 0.495 5 1 C5 2.98 5 4.96 5 7 C5.66 7 6.32 7 7 7 C7.66 8.98 8.32 10.96 9 13 C9.66 13 10.32 13 11 13 C11 13.66 11 14.32 11 15 C11.66 15 12.32 15 13 15 C13 15.66 13 16.32 13 17 C12.01 17.33 11.02 17.66 10 18 C8.32982236 15.18957076 6.66445191 12.37632343 5 9.5625 C4.28457031 8.35883789 4.28457031 8.35883789 3.5546875 7.13085938 C2.87792969 5.98520508 2.87792969 5.98520508 2.1875 4.81640625 C1.76855469 4.10943604 1.34960938 3.40246582 0.91796875 2.67407227 C0 1 0 1 0 0 Z " fill="#494BF3" transform="translate(333,411)"/>
<path d="M0 0 C4.75097043 4.19203274 8.3879305 9.20631201 11 15 C10.67 15.99 10.34 16.98 10 18 C6 13.375 6 13.375 6 10 C5.34 10 4.68 10 4 10 C3.67 8.35 3.34 6.7 3 5 C2.01 4.67 1.02 4.34 0 4 C0 2.68 0 1.36 0 0 Z " fill="#5D36F1" transform="translate(582,446)"/>
<path d="M0 0 C3.81088512 3.81088512 5.65404304 6.30808609 8 11 C7.67 11.66 7.34 12.32 7 13 C6.59007812 12.4225 6.18015625 11.845 5.7578125 11.25 C5.21898437 10.5075 4.68015625 9.765 4.125 9 C3.32449219 7.88625 3.32449219 7.88625 2.5078125 6.75 C2.01023437 6.1725 1.51265625 5.595 1 5 C0.34 5 -0.32 5 -1 5 C-2.38938077 6.96147874 -3.7260411 8.96166576 -5 11 C-5.66 10.67 -6.32 10.34 -7 10 C-3.535 5.05 -3.535 5.05 0 0 Z " fill="#050D1E" transform="translate(549,439)"/>
<path d="M0 0 C-3.97610786 2.71486934 -8.13901977 2.22440753 -12.75 2.125 C-13.54277344 2.11597656 -14.33554687 2.10695313 -15.15234375 2.09765625 C-17.10169281 2.07417012 -19.05088575 2.03830137 -21 2 C-21 1.34 -21 0.68 -21 0 C-6.21867882 -1.33257403 -6.21867882 -1.33257403 0 0 Z " fill="#5235DC" transform="translate(389,468)"/>
<path d="M0 0 C0.99 0 1.98 0 3 0 C5.25 2.25 5.25 2.25 7 5 C6.75 7.125 6.75 7.125 6 9 C6 9.99 6 10.98 6 12 C5.01 12.495 5.01 12.495 4 13 C2.68 8.71 1.36 4.42 0 0 Z " fill="#365FF2" transform="translate(163,411)"/>
<path d="M0 0 C4.18020025 1.39340008 5.46557639 4.36186855 7.6875 7.9375 C8.10322266 8.58396484 8.51894531 9.23042969 8.94726562 9.89648438 C12 14.72371459 12 14.72371459 12 17 C10.0625 16.3125 10.0625 16.3125 8 15 C7.25 12.375 7.25 12.375 7 10 C6.34 10 5.68 10 5 10 C4.54625 9.030625 4.0925 8.06125 3.625 7.0625 C2.34213779 3.92920418 2.34213779 3.92920418 0 3 C0 2.01 0 1.02 0 0 Z " fill="#573CF1" transform="translate(570,428)"/>
<path d="M0 0 C0.99 0.33 1.98 0.66 3 1 C2.195625 1.763125 1.39125 2.52625 0.5625 3.3125 C-2.16799024 5.79430898 -2.16799024 5.79430898 -3 9 C-3.99 9 -4.98 9 -6 9 C-7.68798827 10.43750191 -7.68798827 10.43750191 -9 12 C-9 8.00102358 -7.64683965 6.93298448 -5 4 C-2.4375 1.625 -2.4375 1.625 0 0 Z " fill="#4F40EF" transform="translate(645,368)"/>
<path d="M0 0 C6.37581812 12.6658629 6.37581812 12.6658629 7 20 C3.50875574 18.25437787 3.0342262 14.101194 1.8125 10.5625 C1.52697266 9.77294922 1.24144531 8.98339844 0.94726562 8.16992188 C0.68236328 7.41388672 0.41746094 6.65785156 0.14453125 5.87890625 C-0.09934326 5.1835376 -0.34321777 4.48816895 -0.59448242 3.77172852 C-1 2 -1 2 0 0 Z " fill="#4E4AF0" transform="translate(179,450)"/>
<path d="M0 0 C1.98 0 3.96 0 6 0 C6 4.62 6 9.24 6 14 C5.01 13.67 4.02 13.34 3 13 C3 9.04 3 5.08 3 1 C2.01 0.67 1.02 0.34 0 0 Z " fill="#171553" transform="translate(725,422)"/>
<path d="M0 0 C0.33 0.66 0.66 1.32 1 2 C0.07470849 4.03564133 -0.93988057 6.03120677 -2 8 C-2.474375 9.010625 -2.94875 10.02125 -3.4375 11.0625 C-5.0162559 14.0305611 -6.82289917 16.44753695 -9 19 C-8.42334609 14.2128572 -6.35917004 10.74871176 -3.9375 6.6875 C-3.56044922 6.04232422 -3.18339844 5.39714844 -2.79492188 4.73242188 C-1.86962507 3.15121848 -0.93567319 1.5750854 0 0 Z " fill="#1D9AF8" transform="translate(104,408)"/>
<path d="M0 0 C0.33 0 0.66 0 1 0 C0.5547115 5.27315333 -0.08373163 10.01770224 -2 15 C-2.66 15 -3.32 15 -4 15 C-3.43179252 9.54520815 -2.05362055 5.08940744 0 0 Z " fill="#395AEE" transform="translate(414,390)"/>
<path d="M0 0 C2.13209391 2.75290949 4.01356503 5.54416744 5.75 8.5625 C6.19859375 9.32691406 6.6471875 10.09132813 7.109375 10.87890625 C8 13 8 13 7 16 C5.6559907 14.00715862 4.32458708 12.00580329 3 10 C2.4225 9.154375 1.845 8.30875 1.25 7.4375 C-0.14340885 4.72035273 -0.25804683 3.01054639 0 0 Z " fill="#3068F0" transform="translate(328,355)"/>
<path d="M0 0 C1.32 0.33 2.64 0.66 4 1 C4 2.32 4 3.64 4 5 C6.42672567 6.78969026 6.42672567 6.78969026 9 8 C8.34 9.32 7.68 10.64 7 12 C5.82455195 10.56967163 4.65989738 9.13046758 3.5 7.6875 C2.8503125 6.88699219 2.200625 6.08648437 1.53125 5.26171875 C0 3 0 3 0 0 Z " fill="#5C39EC" transform="translate(191,482)"/>
<path d="M0 0 C5.87693647 4.30975341 8.54479946 8.72399728 10 16 C7.00123678 13.19680829 4.83677273 10.40565083 2.75 6.875 C2.22921875 6.00617188 1.7084375 5.13734375 1.171875 4.2421875 C0 2 0 2 0 0 Z " fill="#060F21" transform="translate(579,438)"/>
<path d="M0 0 C0.66 0 1.32 0 2 0 C1.88655624 2.1464753 1.75893655 4.29220592 1.625 6.4375 C1.52058594 8.22994141 1.52058594 8.22994141 1.4140625 10.05859375 C1.27742188 11.02925781 1.14078125 11.99992187 1 13 C0.01 13.495 0.01 13.495 -1 14 C-1.02685938 11.85423363 -1.04633088 9.70837355 -1.0625 7.5625 C-1.07410156 6.36753906 -1.08570313 5.17257812 -1.09765625 3.94140625 C-1 1 -1 1 0 0 Z " fill="#3069FB" transform="translate(288,372)"/>
<path d="M0 0 C1.65 0 3.3 0 5 0 C5 1.65 5 3.3 5 5 C4.01 5.33 3.02 5.66 2 6 C1.01 5.01 0.02 4.02 -1 3 C-0.67 2.01 -0.34 1.02 0 0 Z " fill="#6334F8" transform="translate(242,469)"/>
<path d="M0 0 C4.875 3.75 4.875 3.75 6 6 C6.66 6.33 7.32 6.66 8 7 C9.36244796 8.64295195 10.69864875 10.30824337 12 12 C8.49397258 11.41953188 6.79150498 10.19876969 4.3125 7.6875 C3.71050781 7.09324219 3.10851562 6.49898438 2.48828125 5.88671875 C0.91421835 3.89125318 0.41108176 2.48293385 0 0 Z " fill="#5740F5" transform="translate(418,449)"/>
<path d="M0 0 C2.24107496 2.88138209 4.33168894 5.74679343 6 9 C5.67 9.99 5.34 10.98 5 12 C4.34 12 3.68 12 3 12 C1.9375 10.125 1.9375 10.125 1 8 C1.33 7.34 1.66 6.68 2 6 C1.34 5.67 0.68 5.34 0 5 C0 3.35 0 1.7 0 0 Z " fill="#266FEB" transform="translate(322,344)"/>
<path d="M0 0 C7.425 0.99 7.425 0.99 15 2 C11.22395846 4.51736102 8.68994863 5.2628809 4.1875 4.5625 C3.465625 4.376875 2.74375 4.19125 2 4 C2 3.34 2 2.68 2 2 C1.34 2 0.68 2 0 2 C0 1.34 0 0.68 0 0 Z " fill="#6136F6" transform="translate(226,467)"/>
<path d="M0 0 C0.66 0.33 1.32 0.66 2 1 C1.40606618 2.29640378 0.79942011 3.58698839 0.1875 4.875 C-0.14894531 5.59429687 -0.48539062 6.31359375 -0.83203125 7.0546875 C-2 9 -2 9 -5 11 C-5.33 10.34 -5.66 9.68 -6 9 C-4.29864224 5.76742026 -2.23960447 2.87949147 0 0 Z " fill="#5939EE" transform="translate(496,446)"/>
<path d="M0 0 C3.44216672 2.6598561 3.99504674 5.90288286 5 10 C4.01 10.33 3.02 10.66 2 11 C0.58251068 7.69252492 -0.50358852 4.57416264 -1 1 C-0.67 0.67 -0.34 0.34 0 0 Z " fill="#3B54EB" transform="translate(197,398)"/>
<path d="M0 0 C7 10.5 7 10.5 7 14 C4 13 4 13 2.83203125 11.07421875 C2.49558594 10.28660156 2.15914063 9.49898438 1.8125 8.6875 C1.46832031 7.90761719 1.12414062 7.12773437 0.76953125 6.32421875 C0 4 0 4 0 0 Z " fill="#5241F4" transform="translate(411,434)"/>
<path d="M0 0 C1.90389849 2.85584773 2.69462177 4.9311762 3.625 8.1875 C3.88539063 9.08855469 4.14578125 9.98960937 4.4140625 10.91796875 C4.60742188 11.60503906 4.80078125 12.29210937 5 13 C4.01 13.495 4.01 13.495 3 14 C2.566875 12.2984375 2.566875 12.2984375 2.125 10.5625 C1.75375 9.386875 1.3825 8.21125 1 7 C0.34 6.67 -0.32 6.34 -1 6 C-0.67 4.02 -0.34 2.04 0 0 Z " fill="#4947EE" transform="translate(208,425)"/>
<path d="M0 0 C-0.33 0.66 -0.66 1.32 -1 2 C-3.97 2 -6.94 2 -10 2 C-10.33 1.34 -10.66 0.68 -11 0 C-7.18243176 -1.37432457 -3.92744671 -0.67975039 0 0 Z " fill="#4E3DEE" transform="translate(663,365)"/>
<path d="M0 0 C2.32472205 2.85306797 3.7508258 5.54074837 5 9 C4.34 9.66 3.68 10.32 3 11 C0 4.5 0 4.5 0 0 Z " fill="#3E53ED" transform="translate(542,383)"/>
<path d="M0 0 C1.44977894 2.34112451 2.04314411 3.5796929 1.7578125 6.359375 C1.54898438 7.14828125 1.34015625 7.9371875 1.125 8.75 C0.92132812 9.54921875 0.71765625 10.3484375 0.5078125 11.171875 C0.34023438 11.77515625 0.17265625 12.3784375 0 13 C-0.33 13 -0.66 13 -1 13 C-1.2236337 11.58566794 -1.42826476 10.16832382 -1.625 8.75 C-1.74101563 7.96109375 -1.85703125 7.1721875 -1.9765625 6.359375 C-2.00319395 3.67847541 -1.36592084 2.27305911 0 0 Z " fill="#5336E9" transform="translate(677,383)"/>
<path d="M0 0 C2.48862878 3.23521742 4.75421558 6.59260295 7 10 C4.625 9.75 4.625 9.75 2 9 C-0.17831524 6.09557968 -0.19715281 3.54875053 0 0 Z " fill="#5539E7" transform="translate(220,457)"/>
<path d="M0 0 C0.66 0.33 1.32 0.66 2 1 C-0.475 5.455 -0.475 5.455 -3 10 C-5 7 -5 7 -5 5 C-4.01 4.67 -3.02 4.34 -2 4 C-0.79117904 1.99983534 -0.79117904 1.99983534 0 0 Z " fill="#267AED" transform="translate(112,463)"/>
<path d="M0 0 C2.75 -0.25 2.75 -0.25 6 0 C8.375 2 8.375 2 10 4 C9.01 4.495 9.01 4.495 8 5 C7.67 5.66 7.34 6.32 7 7 C6.34 5.02 5.68 3.04 5 1 C3.35 1 1.7 1 0 1 C0 0.67 0 0.34 0 0 Z " fill="#1B7FF1" transform="translate(307,330)"/>
<path d="M0 0 C0.66 1.32 1.32 2.64 2 4 C-0.97 4 -3.94 4 -7 4 C-7 3.34 -7 2.68 -7 2 C-4.69 1.34 -2.38 0.68 0 0 Z " fill="#6328E5" transform="translate(244,498)"/>
<path d="M0 0 C0.66 0 1.32 0 2 0 C2.33 0.66 2.66 1.32 3 2 C3.99 2.33 4.98 2.66 6 3 C6 5.31 6 7.62 6 10 C3.25722422 6.80009492 1.3697164 3.99500618 0 0 Z " fill="#040D1E" transform="translate(337,370)"/>
<path d="M0 0 C1.5625 1.8125 1.5625 1.8125 3 4 C2.67 4.99 2.34 5.98 2 7 C1.01 7.33 0.02 7.66 -1 8 C-1.33 7.01 -1.66 6.02 -2 5 C-1.34 5 -0.68 5 0 5 C-0.2784375 4.0409375 -0.2784375 4.0409375 -0.5625 3.0625 C-0.7790625 2.0415625 -0.7790625 2.0415625 -1 1 C-0.67 0.67 -0.34 0.34 0 0 Z " fill="#1889EF" transform="translate(156,289)"/>
<path d="M0 0 C0.66 0 1.32 0 2 0 C0.6302836 3.99500618 -1.25722422 6.80009492 -4 10 C-3.43697042 6.05879291 -2.3208055 3.2491277 0 0 Z " fill="#2095F7" transform="translate(69,472)"/>
<path d="M0 0 C1.98 1.65 3.96 3.3 6 5 C5.67 5.66 5.34 6.32 5 7 C-0.875 3.25 -0.875 3.25 -2 1 C-1.34 0.67 -0.68 0.34 0 0 Z " fill="#6736F6" transform="translate(201,492)"/>
<path d="M0 0 C1.0326802 2.78823655 1.04509293 3.8677274 0.0625 6.75 C-0.288125 7.4925 -0.63875 8.235 -1 9 C-1.99 8.34 -2.98 7.68 -4 7 C-2.68 4.69 -1.36 2.38 0 0 Z " fill="#533FEF" transform="translate(530,424)"/>
<path d="M0 0 C1.65 0 3.3 0 5 0 C5.33 0.66 5.66 1.32 6 2 C2.78548731 3.60725635 -0.43612536 3.05748185 -4 3 C-2.68 2.67 -1.36 2.34 0 2 C0 1.34 0 0.68 0 0 Z " fill="#5B34F3" transform="translate(694,394)"/>
</svg>
